<?xml version="1.0" standalone="no"?>
<!DOCTYPE svg PUBLIC "-//W3C//DTD SVG 20010904//EN"
 "http://www.w3.org/TR/2001/REC-SVG-20010904/DTD/svg10.dtd">
<svg version="1.0" xmlns="http://www.w3.org/2000/svg"
 width="1024.000000pt" height="1024.000000pt" viewBox="0 0 1024.000000 1024.000000"
 preserveAspectRatio="xMidYMid meet">
<metadata>
Created by potrace 1.14, written by Peter Selinger 2001-2017
</metadata>
<g transform="translate(0.000000,1024.000000) scale(0.100000,-0.100000)"
fill="#000000" stroke="none">
<path d="M3994 8423 c-13 -14 -23 -42 -27 -69 -2 -26 -9 -49 -14 -53 -6 -3
-13 -18 -17 -33 -3 -16 -11 -28 -17 -28 -6 0 -7 -5 -4 -11 4 -5 0 -18 -8 -27
-9 -9 -17 -21 -19 -27 -2 -5 -6 -9 -9 -8 -4 1 -5 -7 -2 -17 3 -11 0 -20 -6
-20 -6 0 -10 -3 -9 -7 4 -17 -24 -93 -32 -88 -4 3 -6 -4 -3 -15 4 -14 -3 -30
-18 -47 -13 -14 -17 -22 -9 -18 12 7 13 6 4 -6 -6 -8 -21 -43 -34 -79 -13 -36
-26 -67 -29 -70 -3 -3 -8 -14 -9 -25 -2 -11 -8 -23 -14 -26 -5 -3 -9 -9 -9
-13 3 -24 -2 -39 -19 -56 -11 -11 -16 -20 -11 -20 11 0 -36 -112 -51 -121 -5
-3 -9 -9 -8 -13 2 -16 -24 -85 -31 -80 -4 2 -8 -6 -7 -18 2 -25 -28 -98 -40
-98 -4 0 -8 -12 -9 -27 0 -15 -6 -29 -12 -31 -5 -2 -7 -10 -4 -19 4 -9 2 -14
-3 -10 -5 3 -11 -3 -12 -14 -4 -42 -6 -49 -13 -49 -4 0 -20 -33 -35 -74 -16
-41 -31 -73 -35 -70 -4 2 -7 -2 -6 -9 1 -31 -4 -48 -12 -43 -5 4 -7 -3 -4 -14
4 -15 0 -20 -13 -21 -11 0 -13 -3 -7 -6 10 -3 9 -11 -3 -34 -9 -19 -19 -27
-27 -22 -9 5 -9 3 0 -9 7 -8 9 -18 5 -22 -4 -4 -7 -11 -8 -14 -3 -25 -18 -62
-25 -62 -4 0 -6 -9 -4 -20 2 -11 0 -20 -4 -20 -5 0 -12 -11 -15 -25 -4 -16
-11 -23 -18 -19 -6 4 -8 3 -5 -3 9 -14 -47 -136 -57 -126 -4 4 -4 -5 0 -21 5
-22 4 -27 -6 -21 -10 6 -12 3 -8 -13 4 -12 2 -22 -2 -22 -5 0 -11 -13 -15 -30
-4 -16 -11 -30 -17 -30 -6 0 -9 -3 -6 -6 4 -3 -1 -22 -9 -42 -8 -20 -20 -48
-26 -62 -6 -14 -11 -27 -12 -30 -1 -3 -7 -18 -13 -33 -7 -16 -12 -33 -12 -38
0 -5 -4 -9 -10 -9 -5 0 -6 -8 -3 -17 5 -13 3 -15 -13 -9 -15 5 -16 4 -7 -5 13
-13 7 -39 -15 -56 -10 -8 -11 -13 -4 -13 9 0 7 -10 -5 -32 -9 -18 -16 -36 -15
-40 1 -3 -10 -27 -23 -53 -14 -25 -25 -53 -25 -61 0 -8 -3 -13 -7 -11 -5 3 -9
-5 -9 -16 -1 -12 -15 -50 -32 -84 -17 -35 -28 -63 -24 -63 3 0 -1 -6 -10 -12
-9 -7 -19 -26 -22 -41 -4 -17 -11 -25 -18 -21 -7 5 -8 3 -4 -5 5 -7 0 -19 -10
-27 -11 -9 -14 -13 -7 -10 6 4 14 2 18 -4 3 -5 1 -10 -4 -10 -6 0 -11 -7 -11
-15 0 -8 -4 -15 -10 -15 -5 0 -10 -9 -10 -19 0 -11 -6 -26 -14 -34 -11 -11
-12 -17 -3 -26 7 -7 7 -11 1 -11 -6 0 -16 -22 -24 -50 -7 -27 -17 -47 -22 -44
-4 3 -8 -1 -9 -8 -2 -32 -9 -53 -19 -56 -5 -2 -8 -8 -4 -13 3 -5 1 -9 -5 -9
-5 0 -8 -11 -6 -25 2 -22 -5 -30 -27 -26 -4 0 -5 -5 -2 -12 3 -8 -1 -27 -7
-43 -7 -16 -13 -33 -14 -39 0 -5 -7 -9 -15 -7 -11 3 -11 0 -1 -12 10 -12 9
-16 -6 -25 -13 -7 -14 -10 -4 -11 11 0 9 -4 -5 -15 -10 -8 -16 -15 -12 -15 4
0 -9 -34 -27 -75 -19 -41 -31 -75 -27 -75 4 0 -1 -5 -10 -11 -10 -5 -15 -16
-12 -24 4 -9 0 -15 -9 -15 -9 0 -19 -4 -22 -10 -3 -6 1 -7 10 -4 15 6 15 3 0
-32 -9 -22 -18 -45 -19 -52 -1 -8 -9 -18 -17 -23 -8 -5 -11 -9 -7 -9 12 0 -24
-83 -41 -98 -9 -8 -10 -11 -3 -7 17 9 15 -20 -4 -39 -8 -9 -12 -20 -9 -26 9
-14 -4 -52 -16 -45 -5 3 -6 0 -3 -8 3 -8 1 -18 -5 -22 -6 -3 -11 -14 -11 -24
0 -10 -6 -24 -14 -30 -7 -6 -16 -25 -20 -41 -4 -23 -10 -28 -23 -24 -14 5 -15
4 -4 -4 8 -6 10 -15 5 -23 -5 -8 -7 -21 -6 -31 2 -9 -2 -20 -9 -24 -8 -5 -9
-3 -4 6 5 8 4 11 -2 7 -6 -4 -8 -19 -5 -33 4 -23 2 -26 -13 -20 -14 5 -16 4
-7 -7 7 -8 9 -17 5 -21 -4 -3 -8 -14 -9 -22 -5 -30 -14 -45 -24 -39 -5 3 -7 0
-4 -8 3 -8 -1 -21 -8 -28 -7 -8 -15 -23 -16 -34 -2 -11 -13 -40 -25 -65 -11
-25 -20 -48 -19 -52 1 -5 -6 -8 -16 -8 -9 0 -13 -4 -7 -8 12 -8 16 -44 5 -37
-5 3 -14 -17 -21 -44 -7 -28 -17 -47 -22 -44 -6 3 -7 1 -3 -5 7 -12 -24 -92
-37 -92 -4 0 -5 -5 -1 -11 9 -15 -16 -60 -29 -52 -6 3 -7 1 -3 -6 12 -19 -4
-53 -21 -46 -13 4 -13 3 -4 -9 9 -11 6 -26 -16 -72 -15 -33 -28 -63 -28 -69
-1 -5 -3 -16 -3 -23 -1 -7 -6 -11 -11 -8 -4 3 -6 -5 -4 -18 3 -13 -1 -27 -8
-31 -8 -6 -10 -4 -4 5 5 9 4 11 -4 6 -6 -4 -9 -11 -6 -16 7 -12 -12 -50 -34
-68 -9 -8 -10 -11 -3 -7 6 3 12 1 12 -4 0 -6 -4 -11 -10 -11 -5 0 -7 -7 -4
-15 4 -10 0 -15 -12 -15 -15 0 -16 -2 -5 -9 9 -6 10 -11 2 -15 -6 -4 -9 -11
-6 -16 3 -5 1 -11 -5 -15 -5 -3 -10 -15 -10 -26 0 -11 -4 -17 -10 -14 -6 3 -7
-1 -4 -9 3 -9 1 -16 -6 -16 -6 0 -9 -4 -6 -8 3 -5 -2 -22 -10 -37 -8 -16 -16
-42 -17 -57 -1 -19 -6 -26 -15 -23 -7 3 -10 1 -7 -5 3 -5 3 -21 -1 -35 -4 -18
-11 -24 -22 -20 -13 5 -13 3 -2 -11 8 -9 10 -18 4 -22 -5 -4 -10 -14 -12 -23
-1 -9 -11 -33 -23 -55 -20 -38 -21 -27 -4 33 3 10 -3 -1 -14 -24 -11 -24 -25
-43 -30 -43 -6 0 -8 -7 -4 -16 5 -13 7 -13 14 -2 14 21 11 -6 -4 -41 -7 -17
-17 -28 -22 -24 -4 5 -5 3 -2 -3 7 -13 -13 -85 -23 -79 -3 2 -6 -8 -6 -23 1
-18 -4 -26 -13 -24 -8 2 -11 -3 -8 -11 3 -8 0 -25 -7 -38 -14 -27 -16 -34 -16
-50 0 -6 -7 -8 -17 -5 -15 6 -15 4 2 -14 10 -11 14 -20 9 -20 -5 0 -20 -21
-34 -48 -13 -26 -28 -50 -33 -53 -5 -3 -8 -8 -6 -10 2 -3 -8 -42 -16 -59 -1
-3 -10 -23 -20 -45 -10 -22 -19 -42 -20 -45 0 -3 -3 -10 -7 -16 -11 -18 2 -24
49 -24 24 0 43 -5 43 -11 0 -6 6 -4 14 4 17 16 66 11 66 -7 0 -6 4 -5 9 3 11
17 222 16 232 -1 4 -7 8 -6 11 3 5 16 86 13 107 -4 12 -9 13 -9 7 0 -10 18
135 18 153 1 11 -10 13 -10 7 0 -5 8 2 12 26 12 19 0 40 -6 47 -12 11 -10 13
-10 7 0 -6 9 16 12 93 12 74 0 101 -3 101 -12 0 -10 3 -9 9 1 11 17 222 16
232 -1 4 -7 8 -6 11 2 3 9 34 12 113 11 100 -1 138 5 136 23 -1 12 13 41 29
58 9 9 22 34 29 55 8 21 18 49 24 63 6 14 9 31 8 38 -1 6 4 12 11 12 9 0 9 3
-2 10 -8 5 -10 10 -4 10 7 0 15 11 18 25 4 14 11 23 16 20 10 -6 14 15 11 44
-2 7 2 10 7 7 11 -6 26 23 17 32 -3 3 -5 -1 -5 -8 0 -7 -2 -11 -5 -8 -9 9 21
58 31 50 4 -4 3 0 -4 9 -11 14 -8 22 18 50 16 18 30 37 30 42 0 5 -9 -1 -21
-14 l-20 -24 17 27 c9 16 13 28 9 28 -5 0 -1 8 8 18 8 9 16 22 17 27 4 20 20
55 24 55 3 0 3 -6 0 -14 -3 -8 -1 -16 4 -20 10 -6 10 24 -1 41 -4 6 0 13 7 16
8 3 17 2 20 -4 2 -5 3 -4 2 3 -2 7 -10 12 -19 12 -9 -1 -14 2 -11 7 3 5 12 9
20 9 8 0 14 5 14 11 0 5 -5 7 -11 3 -7 -4 -10 -1 -7 7 3 8 9 13 14 12 5 0 15
6 23 14 12 13 11 14 -8 8 -21 -6 -22 -5 -12 14 7 12 14 21 17 21 3 0 2 -5 -2
-12 -4 -7 -3 -8 5 -4 9 6 9 11 1 21 -7 8 -8 20 -4 27 5 7 9 19 11 27 1 8 8 18
15 22 11 7 11 9 0 9 -7 0 -10 5 -7 10 4 6 12 7 18 4 9 -5 9 -4 0 6 -9 10 -9
19 3 41 8 16 11 29 7 29 -4 0 3 7 15 16 12 8 21 23 20 32 -2 10 3 17 13 16 9
-1 16 4 16 11 0 7 -6 11 -12 8 -9 -3 -11 4 -7 24 5 25 6 26 14 8 6 -14 7 -10
3 14 -4 26 -2 31 8 23 9 -8 13 -7 13 6 1 9 4 26 8 37 5 13 2 11 -8 -5 -8 -14
-15 -20 -16 -15 0 6 7 20 15 31 8 12 11 25 7 29 -4 5 -1 4 7 0 11 -6 13 -4 8
10 -6 14 -3 16 13 12 11 -3 23 -1 26 4 3 5 2 9 -3 8 -19 -3 -33 2 -33 12 0 6
7 8 16 5 15 -6 15 -4 3 11 -12 14 -12 16 0 8 11 -6 13 -4 8 8 -7 18 25 33 45
21 10 -6 10 -4 0 8 -11 14 -10 19 12 33 14 9 30 14 36 10 6 -4 9 -1 8 6 -3 15
61 40 77 31 6 -4 20 -6 33 -7 12 0 27 -7 32 -15 8 -13 10 -13 10 1 0 21 24 31
39 16 8 -8 11 -8 11 2 0 7 4 10 10 6 5 -3 6 -13 3 -23 -5 -16 -5 -16 8 0 14
17 92 28 105 15 10 -9 26 -9 21 1 -5 7 111 8 119 0 2 -3 25 -2 49 2 25 4 48 3
51 -2 3 -4 10 -8 15 -8 6 0 8 4 5 8 -2 4 4 8 15 8 10 0 19 -4 19 -9 0 -4 5 -5
12 -1 20 13 138 13 131 0 -4 -6 1 -5 10 3 11 9 17 10 17 2 0 -6 5 -11 11 -11
5 0 8 4 5 8 -3 5 42 8 100 8 57 0 104 -4 104 -9 0 -4 5 -5 12 -1 17 11 88 12
88 2 0 -5 5 -6 12 -2 16 10 108 11 108 2 0 -5 8 -4 18 1 11 6 24 6 33 0 18
-12 32 -12 24 0 -5 9 33 7 42 -3 2 -2 20 0 39 4 19 4 36 4 39 0 2 -4 16 -5 30
-2 21 4 24 1 19 -14 -5 -17 -4 -17 8 1 9 14 24 20 51 20 20 0 37 -4 37 -9 0
-5 3 -6 7 -3 3 4 13 1 21 -6 10 -8 13 -8 9 -1 -4 7 -1 14 7 17 21 8 28 -4 13
-22 -6 -8 0 -6 15 5 17 14 38 20 55 18 72 -10 133 -11 133 -2 0 5 5 6 12 2 19
-12 138 -11 138 1 0 7 3 7 8 0 8 -12 52 -15 52 -4 0 4 15 3 34 -1 22 -5 39 -3
45 3 8 8 11 7 11 -2 0 -7 5 -9 10 -6 6 3 10 0 10 -7 0 -8 3 -9 8 -3 4 6 26 11
50 12 33 1 42 -2 43 -15 0 -15 1 -15 7 -1 7 16 57 20 79 6 6 -4 13 -4 15 0 1
5 35 7 75 5 66 -3 72 -5 77 -28 4 -14 4 -30 0 -36 -5 -7 -2 -8 6 -3 8 5 11 3
8 -6 -3 -8 -11 -13 -17 -11 -7 1 -10 -2 -6 -7 3 -6 12 -8 19 -5 8 3 16 -4 19
-15 3 -12 1 -19 -3 -16 -5 3 -12 1 -15 -5 -4 -6 -3 -10 2 -9 24 4 33 -4 33
-27 0 -16 -4 -23 -12 -18 -7 4 -8 3 -4 -4 4 -6 13 -9 20 -6 8 3 16 -4 19 -15
3 -14 1 -19 -6 -15 -7 3 -3 -2 7 -10 15 -12 16 -16 5 -16 -10 -1 -10 -3 3 -11
10 -5 15 -16 12 -24 -4 -8 -1 -15 5 -15 6 0 11 -8 11 -18 0 -10 6 -24 13 -31
10 -11 9 -12 -3 -6 -9 5 -7 -1 5 -14 11 -13 18 -24 16 -25 -3 0 3 -14 13 -29
11 -15 16 -31 12 -34 -3 -4 -167 -7 -364 -7 -346 0 -357 1 -358 20 0 10 3 29
8 42 4 12 10 33 12 45 3 12 14 58 26 102 33 119 33 124 21 139 -9 10 -26 13
-62 9 -43 -5 -49 -3 -49 14 0 18 -12 19 -290 20 -159 1 -294 4 -298 7 -5 3
-18 -3 -29 -14 -12 -10 -24 -16 -28 -12 -4 4 -5 2 -4 -3 2 -6 -5 -27 -14 -49
-9 -21 -14 -42 -11 -47 3 -5 0 -9 -5 -9 -6 0 -11 -7 -11 -15 0 -8 -4 -15 -10
-15 -5 0 -9 -3 -8 -8 4 -15 -24 -82 -32 -77 -5 3 -7 -4 -5 -15 2 -11 -2 -23
-8 -27 -7 -5 -13 -17 -14 -28 -6 -46 -24 -96 -33 -90 -5 3 -6 -4 -3 -15 3 -12
0 -20 -6 -20 -7 0 -9 -5 -5 -11 3 -6 1 -22 -5 -35 -6 -13 -16 -35 -23 -49 -6
-13 -14 -23 -17 -20 -4 2 -6 -9 -5 -23 1 -15 -3 -38 -8 -52 -9 -25 -43 -62
-50 -55 -2 2 -4 -4 -4 -15 0 -10 4 -16 8 -14 11 7 10 -2 -1 -24 -9 -16 -21
-46 -27 -67 -8 -27 -48 -130 -59 -151 -6 -13 -16 -20 -20 -16 -5 4 -5 2 -1 -5
6 -10 1 -27 -30 -108 -4 -11 -6 -23 -6 -27 1 -5 -3 -8 -8 -8 -5 0 -9 -3 -9 -7
4 -26 -3 -43 -18 -43 -14 0 -15 -2 -5 -9 11 -6 10 -12 -5 -26 -10 -10 -17 -21
-16 -24 5 -14 -10 -50 -18 -45 -5 3 -6 -2 -3 -11 4 -8 0 -23 -7 -33 -11 -14
-11 -15 1 -4 19 17 114 17 104 0 -6 -10 -4 -10 7 0 8 8 45 12 106 12 68 0 93
-3 93 -12 0 -10 3 -9 9 1 9 14 16 14 383 8 69 -1 124 2 121 6 -3 5 1 7 8 6 28
-6 70 11 67 28 -2 9 3 18 10 20 8 3 10 -2 6 -14 -5 -14 -4 -15 4 -3 6 8 9 17
6 21 -2 4 -1 9 3 12 5 2 3 2 -4 1 -7 -2 -10 3 -6 11 3 8 10 12 17 8 6 -4 4 2
-4 12 -10 12 -10 16 -2 11 10 -6 11 -1 6 18 -4 17 -2 26 6 26 6 0 8 -5 4 -12
-5 -9 -2 -9 9 1 9 7 17 19 17 25 0 6 -4 5 -9 -3 -5 -8 -11 -9 -15 -3 -3 6 -2
13 4 17 6 4 8 11 5 16 -4 5 -1 9 5 9 7 0 10 6 7 14 -6 16 19 30 35 19 7 -4 8
-1 4 6 -5 7 -14 10 -21 7 -8 -3 -12 2 -11 11 2 9 13 18 26 20 32 5 39 13 11
13 -12 0 -20 4 -17 9 4 5 0 12 -6 14 -7 3 -2 6 12 6 20 1 22 3 10 11 -13 8
-13 11 -1 22 10 9 12 10 7 1 -5 -9 -2 -11 9 -7 14 6 14 8 -2 19 -15 11 -16 15
-3 30 8 10 14 20 13 22 -2 1 -3 15 -3 29 0 21 4 25 18 19 14 -5 15 -4 5 6 -19
19 -16 32 5 24 13 -4 14 -3 6 5 -13 13 3 83 17 75 4 -3 5 5 1 17 -3 14 -1 19
6 14 8 -5 10 -2 6 9 -4 8 -2 21 4 28 5 6 15 32 22 57 7 25 17 48 24 52 6 4 12
12 12 18 1 5 2 14 3 18 0 4 17 9 38 10 20 2 39 5 43 7 3 2 12 0 18 -4 7 -4 33
-5 58 -1 24 4 47 4 49 0 5 -8 48 -5 62 3 5 3 15 2 22 -2 7 -5 25 -5 40 -2 18
5 30 3 39 -8 8 -9 11 -11 8 -5 -3 7 5 14 19 16 14 3 25 2 25 -1 0 -3 34 -5 76
-4 57 2 73 0 68 -10 -5 -7 -2 -7 9 2 10 8 36 13 60 12 51 -2 105 -1 121 2 6 1
10 -4 8 -11 -2 -10 2 -10 19 0 17 11 22 10 35 -6 8 -11 14 -28 14 -38 0 -10 4
-18 9 -18 5 0 15 -17 21 -37 7 -21 18 -51 25 -68 30 -70 44 -115 37 -115 -4 0
-1 -4 6 -9 7 -4 14 -19 16 -32 1 -14 6 -31 11 -39 9 -14 45 -136 47 -157 1 -7
5 -13 10 -13 4 0 8 -7 8 -16 0 -14 -2 -15 -17 -3 -16 13 -17 12 -4 -3 7 -10
17 -16 21 -13 5 3 11 1 15 -5 3 -5 1 -11 -4 -11 -6 -1 -15 -2 -20 -3 -5 0 -13
-5 -18 -9 -4 -5 -2 -7 6 -5 7 2 15 -4 16 -13 2 -9 -3 -16 -11 -16 -7 0 -11 3
-9 6 2 4 -3 15 -10 25 -10 13 -30 19 -79 22 -43 2 -66 0 -66 -8 0 -6 -6 -5
-17 3 -15 12 -16 12 -11 -2 4 -9 1 -22 -5 -28 -14 -14 -27 -14 -27 0 0 5 4 8
9 4 20 -12 19 13 -1 31 -12 11 -18 13 -14 7 4 -7 3 -13 -2 -13 -6 0 -8 -10 -6
-22 2 -13 2 -17 -2 -11 -4 10 -9 9 -21 -3 -12 -11 -18 -12 -23 -4 -4 7 -10 8
-13 3 -3 -4 -23 -7 -44 -6 -21 2 -83 3 -138 4 -54 0 -94 3 -88 7 8 5 1 12 -18
21 -16 7 -27 17 -23 22 3 5 10 7 15 4 5 -4 9 -2 9 4 0 10 -17 17 -63 25 -16 3
-39 16 -52 30 -13 15 -27 26 -30 26 -10 0 -60 -34 -68 -47 -4 -7 -15 -13 -23
-13 -9 0 -22 -7 -31 -15 -8 -8 -20 -12 -26 -8 -7 3 -2 -5 11 -19 16 -17 20
-28 13 -33 -7 -3 -10 -3 -9 2 2 4 -1 8 -7 8 -5 0 -9 -4 -7 -9 2 -5 -3 -6 -10
-3 -8 3 -13 -4 -13 -19 0 -13 5 -24 11 -24 6 0 11 -7 11 -15 0 -9 -6 -14 -14
-11 -8 3 -11 1 -8 -4 3 -6 13 -10 22 -10 13 0 13 -3 3 -15 -9 -11 -9 -15 -1
-15 7 0 10 -4 6 -9 -3 -5 0 -13 6 -17 8 -4 9 -3 5 4 -4 7 -1 12 8 12 8 0 17
-6 19 -12 3 -7 6 -8 6 -3 1 6 40 9 101 8 55 -1 100 2 100 6 0 4 9 18 20 31 11
13 20 20 20 16 0 -3 11 1 25 10 14 9 36 14 50 12 14 -3 25 -1 25 5 0 5 6 5 14
-2 8 -7 22 -8 36 -3 12 5 42 5 66 2 24 -4 46 -4 49 -2 8 8 255 8 255 0 0 -4
11 -5 25 -2 14 2 34 0 43 -5 9 -6 12 -11 6 -11 -18 0 -10 -69 11 -90 16 -15
36 -19 90 -21 39 -1 73 -7 77 -13 5 -8 8 -7 8 2 0 9 26 12 95 12 69 0 95 -3
95 -12 0 -10 2 -10 9 0 10 17 381 18 392 1 4 -7 9 -4 13 6 3 9 11 13 17 9 6
-3 56 -6 110 -5 75 2 99 -1 99 -11 0 -8 5 -6 11 5 6 9 15 14 21 11 7 -4 34 -6
61 -5 28 1 55 -3 65 -11 10 -9 13 -9 9 -1 -10 16 92 16 112 0 12 -9 13 -9 7 1
-10 17 55 17 73 -1 11 -9 13 -9 7 1 -5 9 6 12 44 12 28 0 60 5 70 10 13 7 21
7 25 0 4 -6 13 -7 23 -1 10 5 38 12 62 15 73 9 110 18 116 27 3 5 0 9 -5 9 -6
0 -11 9 -11 19 0 11 -5 23 -11 27 -8 5 -8 9 1 14 9 6 7 11 -9 19 -18 10 -19
15 -10 33 8 15 8 18 0 14 -7 -5 -11 1 -11 14 0 14 -4 19 -12 14 -8 -5 -9 -2
-5 9 3 10 2 17 -3 17 -5 0 -7 7 -4 15 4 8 -1 17 -9 21 -9 3 -13 12 -11 19 3 7
0 16 -7 21 -8 5 -10 3 -4 -6 5 -8 4 -11 -3 -7 -5 4 -8 16 -5 27 3 12 0 20 -7
20 -7 0 -10 7 -6 15 3 9 -1 15 -11 15 -13 0 -13 3 -3 15 9 11 9 15 1 15 -7 0
-10 4 -7 9 3 5 -1 11 -9 15 -8 3 -15 13 -15 21 0 10 5 13 12 9 7 -5 8 -3 4 5
-5 7 -15 10 -23 6 -13 -4 -14 -3 -3 10 11 14 7 19 -12 16 -4 0 -5 8 -3 19 2
11 0 20 -4 20 -4 0 -13 12 -19 26 -10 20 -10 24 0 19 7 -4 5 0 -4 8 -14 11
-15 16 -5 26 9 10 9 11 -4 6 -10 -4 -19 0 -23 10 -4 11 -2 14 7 10 6 -4 3 1
-7 9 -12 10 -15 16 -7 16 7 0 3 9 -10 20 -21 18 -22 19 -4 14 19 -5 19 -5 3 9
-10 8 -15 17 -11 20 3 4 0 7 -8 7 -11 0 -11 2 1 10 13 8 12 10 -4 10 -14 0
-17 6 -14 25 3 13 2 22 -3 20 -11 -7 -24 16 -24 45 -1 14 -6 25 -12 25 -6 0
-15 4 -20 9 -4 5 -3 6 4 2 6 -3 14 -2 18 4 3 5 -1 10 -10 10 -9 0 -14 4 -10 9
3 6 -3 15 -12 21 -16 10 -16 11 -1 6 12 -3 15 -1 11 10 -3 7 -9 14 -14 14 -5
0 -9 7 -9 15 0 8 -4 15 -10 15 -5 0 -10 12 -10 26 0 16 -4 23 -12 18 -7 -4 -8
-3 -4 5 4 6 0 23 -9 38 -9 14 -12 23 -7 19 6 -3 4 7 -4 24 -9 16 -12 35 -8 41
4 7 3 9 -2 6 -6 -3 -16 3 -23 15 -7 11 -8 17 -2 13 6 -3 11 -1 11 4 0 6 -4 11
-10 11 -5 0 -14 10 -21 21 -8 16 -8 20 1 14 9 -6 9 -3 1 13 -6 11 -16 22 -23
25 -10 3 -10 9 0 27 8 12 9 19 3 15 -18 -11 -34 5 -20 21 9 11 9 14 0 14 -7 0
-9 5 -6 10 3 6 -1 10 -10 10 -11 0 -14 7 -11 25 3 13 0 28 -6 31 -7 5 -8 2 -3
-6 5 -9 4 -11 -4 -6 -6 4 -9 12 -5 17 3 5 0 16 -6 24 -6 8 -9 18 -6 24 3 5 -2
12 -11 15 -15 6 -15 8 -3 16 12 8 12 10 -2 15 -10 4 -15 15 -13 26 2 10 -1 19
-6 19 -6 0 -7 5 -4 10 3 6 2 10 -3 10 -6 0 -13 7 -16 16 -4 10 -2 13 6 8 7 -5
2 8 -10 27 -12 18 -26 33 -32 32 -5 -2 -7 4 -3 13 5 13 7 13 14 2 5 -7 9 -8 9
-3 -1 14 -26 46 -32 40 -3 -3 -4 5 -3 19 2 14 -3 27 -11 30 -8 3 -14 17 -14
31 0 14 -4 25 -10 25 -5 0 -10 9 -10 19 0 11 -6 22 -12 24 -10 4 -10 6 0 6 10
1 10 4 0 15 -7 8 -17 11 -23 8 -5 -3 -4 2 4 11 12 15 9 21 -11 18 -11 -1 -5
22 7 31 6 4 2 8 -9 8 -13 0 -17 5 -13 19 3 11 -1 28 -9 39 -7 11 -11 22 -7 25
3 4 -2 9 -11 13 -9 3 -16 15 -16 26 0 13 -4 17 -12 12 -8 -5 -7 0 2 11 9 11
10 16 3 11 -8 -4 -13 -2 -13 7 0 8 -9 22 -20 32 -15 14 -17 21 -9 32 11 12 5
18 -16 13 -5 -1 -7 2 -3 5 4 4 3 16 -3 26 -6 13 -6 19 0 19 6 0 8 7 5 15 -4 8
-1 15 6 15 6 0 8 -4 5 -10 -3 -5 -1 -10 4 -10 6 0 11 4 11 9 0 13 132 11 149
-3 11 -8 13 -8 7 2 -4 7 -2 12 8 12 8 0 17 -6 19 -12 4 -10 6 -9 6 1 1 11 4
11 18 0 11 -10 14 -10 9 -1 -10 17 4 15 28 -5 18 -16 19 -16 8 -1 -12 15 -11
17 7 15 12 -1 21 -6 21 -12 0 -7 3 -7 8 0 9 14 55 13 64 0 5 -6 8 -5 8 4 0 10
3 11 14 2 8 -7 17 -8 19 -4 6 10 150 9 166 -1 6 -4 11 -2 11 5 0 10 3 10 12 1
7 -7 17 -8 30 -1 12 6 18 6 18 -1 0 -12 22 -9 32 5 5 6 8 5 8 -2 0 -7 6 -10
13 -7 22 8 97 10 97 2 0 -7 39 -2 48 6 2 3 13 1 23 -5 14 -7 19 -6 19 3 0 6 7
3 15 -8 9 -11 14 -13 13 -5 -3 15 39 23 48 9 3 -4 11 -5 17 -1 17 10 47 11 53
1 3 -4 10 -8 15 -8 6 0 8 4 5 8 -3 5 1 9 9 9 8 0 15 -3 15 -7 0 -4 7 -7 15 -7
8 0 15 5 15 11 0 6 5 4 10 -4 5 -8 10 -10 10 -5 0 11 59 13 77 2 6 -4 14 -3
17 2 7 10 25 9 44 -2 7 -5 12 -3 12 4 0 10 3 10 12 1 7 -7 17 -8 30 -1 13 7
18 6 18 -2 0 -8 4 -9 13 0 10 7 17 7 24 0 8 -8 13 -7 18 1 5 8 13 6 28 -7 12
-10 17 -12 12 -4 -6 11 -4 13 8 8 10 -4 17 -2 17 5 0 7 4 7 13 0 18 -15 29
-15 38 0 6 10 9 8 9 -7 0 -16 2 -17 10 -5 5 8 12 11 16 8 4 -4 14 -3 23 2 10
5 23 5 31 0 9 -5 19 -5 27 2 10 8 13 6 14 -8 0 -12 3 -14 6 -6 4 10 8 10 21 0
10 -8 13 -9 9 -1 -4 6 -3 14 2 18 5 3 14 -3 20 -12 6 -10 11 -13 11 -7 0 13
40 27 40 15 0 -4 7 -8 15 -8 8 0 15 5 15 11 0 7 3 7 8 1 9 -13 32 -17 32 -6 0
5 8 7 18 5 26 -6 36 6 56 71 10 33 27 79 38 102 30 65 20 80 -60 89 -37 4
-111 7 -164 8 -54 1 -98 3 -98 6 0 6 -129 9 -382 10 l-166 1 3 117 c2 64 6
153 10 197 6 89 12 236 20 460 9 252 15 357 23 369 4 6 8 56 9 111 1 55 5 167
7 248 5 134 4 148 -12 153 -9 3 -29 12 -44 20 -16 8 -28 13 -28 10 0 -2 -23 4
-51 15 -29 10 -55 16 -60 14 -4 -3 -10 -1 -14 5 -3 5 -16 10 -29 10 -12 0 -52
9 -87 19 -35 11 -122 33 -194 50 -71 18 -164 40 -205 51 -41 10 -76 17 -79 15
-2 -3 -10 0 -16 5 -16 13 -157 50 -167 44 -4 -3 -8 -1 -8 4 0 11 -68 22 -87
15 -7 -3 -15 -13 -18 -24 -4 -11 -10 -17 -14 -15 -4 3 -5 -11 -3 -30 2 -18 1
-42 -3 -51 -12 -26 -11 -47 0 -55 6 -5 6 -8 -2 -8 -7 0 -10 -14 -8 -37 3 -25
-2 -44 -13 -58 -16 -19 -16 -19 0 -6 17 12 17 11 12 -20 -4 -19 -14 -43 -23
-54 -15 -18 -15 -19 2 -6 16 12 17 10 17 -33 0 -25 -4 -46 -8 -46 -5 0 -9 -7
-9 -15 0 -8 5 -15 11 -15 7 0 7 -3 1 -8 -5 -4 -11 -25 -12 -47 -4 -81 -5 -90
-17 -104 -9 -12 -8 -13 3 -6 11 6 13 4 7 -11 -7 -17 -18 -121 -17 -167 0 -11
-5 -15 -12 -10 -8 5 -8 2 1 -9 8 -10 10 -24 4 -39 -5 -13 -10 -44 -11 -69 -2
-25 -8 -48 -14 -52 -9 -6 -9 -8 0 -8 6 0 10 -8 8 -17 -1 -10 -9 -17 -18 -15
-8 1 -18 -2 -21 -7 -3 -5 2 -8 12 -7 13 1 17 -8 19 -36 2 -31 -1 -36 -15 -32
-12 4 -13 3 -5 -3 13 -9 16 -116 4 -109 -4 3 -5 -13 -4 -35 1 -23 -2 -37 -8
-34 -5 4 -9 1 -9 -4 0 -6 5 -11 10 -11 13 0 2 -73 -11 -78 -5 -2 -7 -7 -4 -12
6 -10 -43 -23 -57 -14 -7 4 -8 3 -4 -4 4 -7 4 -12 -1 -12 -4 0 -7 -25 -6 -55
0 -31 -3 -53 -8 -49 -5 3 -6 10 -3 16 4 7 2 8 -4 4 -13 -8 -5 -36 10 -36 7 0
9 -16 5 -40 -3 -22 -1 -38 4 -34 5 3 6 -2 3 -10 -3 -9 -11 -13 -16 -10 -6 4
-5 -2 1 -14 11 -21 0 -39 -17 -28 -4 2 -9 -11 -10 -31 -2 -19 -3 -38 -4 -42
-3 -28 11 -35 37 -19 6 3 19 -1 30 -9 16 -12 16 -14 3 -10 -10 3 -20 2 -23 -3
-4 -6 -1 -10 5 -10 6 0 8 -5 4 -11 -5 -8 -9 -8 -14 1 -5 9 -9 9 -14 1 -9 -14
-26 -14 -26 0 0 5 4 8 8 5 5 -3 9 1 9 9 0 11 -4 12 -14 4 -7 -7 -13 -7 -13 -2
0 14 -28 12 -34 -3 -3 -7 2 -10 15 -7 10 3 19 0 19 -6 0 -6 -11 -11 -25 -11
-20 0 -24 4 -23 25 1 14 6 25 11 25 5 0 5 6 -1 13 -5 7 -6 21 -1 32 11 29 11
85 -1 85 -5 0 -10 5 -10 11 0 5 4 8 9 5 5 -3 11 5 13 19 6 26 -14 51 -32 40
-5 -3 -10 -1 -10 4 0 6 15 11 33 11 24 0 28 3 17 10 -12 8 -12 10 -1 10 10 0
11 4 3 13 -14 16 -13 28 2 52 7 12 10 30 5 45 -4 14 -7 20 -8 14 -1 -15 -51
-5 -52 10 -3 54 -23 77 -59 71 -19 -3 -27 -1 -27 11 0 9 6 13 15 9 12 -4 12
-3 3 9 -9 11 -8 15 4 19 16 7 10 38 -7 34 -6 -1 -13 4 -16 12 -3 8 0 11 7 7 7
-5 9 -1 5 8 -5 14 -8 14 -21 0 -19 -18 -31 -10 -14 10 18 21 -1 72 -22 59 -5
-3 -4 5 3 17 7 12 8 20 2 16 -5 -3 -13 1 -16 10 -4 10 -2 13 7 8 6 -4 2 4 -11
18 -17 19 -20 28 -11 33 9 6 7 12 -6 22 -14 10 -16 16 -8 24 14 14 -5 62 -20
52 -7 -4 -8 0 -4 11 6 14 3 17 -10 12 -15 -5 -15 -4 1 9 17 13 17 15 4 15 -9
0 -20 5 -24 12 -4 6 -3 8 4 4 18 -11 7 19 -16 44 -24 26 -28 40 -11 40 5 0 8
4 4 10 -3 5 -11 8 -18 6 -7 -1 -9 -1 -4 1 13 8 8 21 -10 26 -17 4 -17 5 0 6 9
0 17 5 17 9 0 5 -27 8 -60 8 -33 -1 -60 3 -60 8 0 4 -6 4 -13 -2 -8 -7 -18 -7
-27 -2 -8 5 -19 6 -25 2 -16 -10 -34 -11 -40 -1 -3 4 -16 4 -29 -1 -17 -6 -29
-5 -42 5 -11 8 -14 15 -9 15 6 0 3 5 -5 11 -13 9 -13 10 0 6 8 -2 23 0 34 5
12 7 16 7 12 0 -3 -5 1 -12 9 -16 8 -3 14 -2 14 2 -3 20 3 23 18 11 11 -10 14
-10 9 -1 -5 8 0 12 13 12 12 0 21 -4 21 -10 0 -5 5 -10 11 -10 5 0 7 5 3 11
-4 7 15 10 64 7 39 -1 69 -1 67 1 -2 2 2 10 10 17 8 9 40 14 87 16 94 2 120
13 114 47 -2 14 -5 29 -5 33 -1 4 -97 7 -213 8 -131 0 -214 4 -216 10 -2 6 -8
10 -13 10 -6 0 -7 -4 -4 -10 3 -5 1 -10 -4 -10 -6 0 -11 5 -11 10 0 6 -5 10
-11 10 -5 0 -7 -4 -4 -10 3 -5 1 -10 -5 -10 -7 0 -10 7 -6 15 6 17 -9 21 -17
5 -3 -6 -4 -5 -3 2 2 7 10 12 19 12 9 -1 18 4 21 12 5 13 -23 12 -44 -1 -6 -3
-10 -1 -10 4 0 6 7 11 15 11 8 0 15 6 15 13 0 8 4 7 10 -3 5 -8 10 -12 10 -7
0 4 10 1 23 -7 15 -11 27 -12 37 -5 13 9 13 10 0 8 -28 -3 -41 1 -36 10 3 5
56 9 117 10 60 0 115 3 120 6 5 4 9 17 9 31 0 24 -7 27 -72 27 -10 0 -18 5
-18 11 0 6 -4 6 -9 -2 -4 -8 -12 -14 -16 -14 -4 0 -12 6 -16 14 -6 9 -9 10 -9
1 0 -9 -7 -10 -22 -5 -13 5 -32 7 -43 7 -11 -1 -26 4 -33 11 -10 11 -10 14 3
14 9 0 14 4 11 8 -2 4 0 14 5 22 7 11 8 7 5 -12 -5 -28 8 -47 18 -29 4 5 2 12
-3 16 -17 10 0 36 23 34 11 0 42 -1 69 0 l47 1 0 38 c0 52 -8 60 -60 55 -84
-7 -156 -1 -153 13 1 5 -8 11 -19 11 -11 1 -23 5 -26 8 -8 8 20 25 30 19 15
-10 8 9 -9 21 -13 10 -4 12 54 14 39 1 80 4 92 6 15 3 21 -1 21 -13 1 -16 1
-16 11 1 5 9 14 17 19 17 5 0 7 -8 3 -17 -5 -15 -3 -14 10 2 13 15 16 16 17 5
0 -9 3 -11 8 -5 4 6 57 10 120 11 107 0 118 -2 113 -29 -1 -5 3 -6 8 -2 6 3 8
12 4 20 -3 10 1 15 12 15 9 0 14 -4 11 -8 -2 -4 4 -8 14 -8 10 0 16 4 14 8 -7
12 24 10 48 -3 12 -7 18 -7 14 -1 -4 6 11 10 41 9 45 -2 47 -1 55 32 7 24 6
36 -2 41 -7 4 -85 7 -175 7 -90 1 -167 3 -171 6 -5 2 -18 1 -29 -3 -11 -4 -32
-4 -47 1 -16 4 -28 5 -28 1 0 -4 -15 -6 -32 -5 -18 1 -33 2 -33 3 0 1 -8 3
-17 5 -10 2 -18 -1 -18 -7 0 -7 -4 -7 -13 0 -7 6 -18 7 -26 3 -7 -5 -36 -7
-65 -5 -28 3 -71 6 -96 8 -24 2 -46 9 -48 16 -3 8 -10 6 -22 -5 -14 -13 -20
-14 -26 -3 -4 7 -4 10 1 6 4 -4 14 0 23 8 13 13 13 17 1 24 -11 7 -11 12 -1
22 9 9 15 9 25 -1 10 -10 8 -11 -7 -5 -13 5 -17 4 -12 -4 10 -16 36 -15 36 1
0 10 20 14 79 14 43 0 84 3 90 7 6 4 11 2 11 -3 0 -6 6 -10 13 -9 6 2 11 -3 9
-10 -1 -8 2 -11 8 -7 6 3 8 10 5 15 -3 5 10 8 30 6 20 -1 38 1 41 6 3 4 14 3
25 -2 13 -8 19 -7 19 0 0 7 6 8 18 2 10 -5 31 -5 49 0 29 8 31 11 30 48 -2 39
-23 60 -46 45 -5 -3 -12 -1 -16 5 -4 6 -12 7 -24 0 -12 -6 -22 -5 -28 1 -7 7
-13 7 -17 1 -4 -7 -17 -7 -36 -2 -16 5 -32 5 -35 1 -9 -15 -53 1 -58 20 -5 18
-28 28 -26 12 4 -23 -4 -31 -31 -35 -17 -3 -33 -1 -36 4 -3 4 -14 3 -25 -2
-10 -6 -19 -7 -19 -3 0 4 -30 8 -68 8 -55 0 -67 3 -64 16 1 9 -4 16 -10 17 -7
1 -24 3 -38 4 -14 2 -32 -4 -40 -12 -8 -9 -12 -11 -7 -4 4 7 1 14 -8 18 -11 4
-14 2 -9 -7 4 -6 -2 -4 -12 6 -16 15 -17 19 -4 27 21 14 33 12 24 -2 -6 -10
-4 -10 8 0 12 9 18 10 23 2 5 -8 11 -8 19 -1 9 7 17 7 26 -2 10 -9 11 -9 6 1
-6 10 4 16 25 14 3 -1 6 6 6 13 0 12 -3 12 -15 3 -8 -7 -39 -11 -75 -10 -57 2
-77 11 -77 37 0 6 5 3 10 -5 6 -10 10 -11 10 -2 0 6 7 12 16 12 8 0 12 -4 9
-10 -3 -5 -1 -10 4 -10 6 0 11 5 11 10 0 6 9 10 20 10 14 0 18 -5 14 -17 -5
-16 -4 -16 5 -2 9 15 44 17 298 18 220 1 289 -2 295 -11 6 -10 8 -10 8 -1 0 9
130 12 566 13 311 0 570 3 575 6 5 3 9 1 9 -4 0 -5 12 -7 26 -4 21 4 25 2 19
-9 -7 -11 -6 -12 6 -3 19 15 71 15 62 0 -4 -7 -1 -6 8 1 12 10 18 10 29 0 7
-6 10 -7 7 -1 -7 12 22 12 42 -1 9 -5 12 -4 8 1 -3 6 8 9 24 9 17 0 34 -7 38
-14 7 -11 9 -11 13 0 4 12 21 13 153 6 28 -2 58 1 67 5 9 4 19 4 22 0 6 -10
36 -9 54 2 6 4 12 3 12 -2 0 -5 7 -9 15 -9 8 0 15 4 15 8 0 10 44 -2 52 -15 5
-7 8 -6 8 3 0 8 7 11 20 8 10 -3 21 0 24 7 3 7 5 7 5 0 1 -6 17 -9 36 -8 26 2
34 0 28 -9 -4 -8 -1 -7 10 1 9 8 21 11 27 7 5 -3 10 0 10 7 0 10 2 10 9 -1 7
-11 9 -11 14 0 3 8 6 9 6 3 1 -7 16 -9 44 -4 50 7 70 3 60 -13 -4 -7 1 -6 10
2 9 7 17 10 17 6 0 -4 6 -2 13 4 8 6 17 8 20 5 10 -10 87 -9 91 1 3 6 5 6 5 0
1 -7 16 -9 37 -7 29 4 35 2 28 -9 -7 -12 -5 -12 9 -1 9 8 21 11 26 8 5 -4 13
-2 16 4 5 8 11 7 21 -1 11 -9 14 -8 14 2 0 11 2 11 10 -1 5 -8 10 -11 10 -7 0
5 7 2 15 -5 33 -30 43 -37 48 -32 3 3 17 7 31 8 31 4 65 32 77 64 10 27 -8 69
-44 102 -26 25 -84 22 -103 -5 -9 -12 -13 -13 -17 -3 -4 8 -8 5 -12 -9 -4 -13
-14 -23 -22 -23 -8 0 -12 -4 -9 -8 2 -4 -4 -8 -15 -8 -10 0 -19 7 -19 15 0 11
-4 10 -16 -5 -8 -10 -13 -13 -9 -6 8 15 0 15 -27 1 -11 -6 -18 -7 -15 -1 4 5
-6 9 -22 8 -16 -1 -27 -4 -24 -9 4 -6 -120 -3 -242 6 -16 1 -40 -1 -52 -5 -12
-4 -25 -3 -28 2 -4 6 -11 10 -16 10 -6 0 -7 -5 -3 -11 5 -8 1 -8 -13 0 -11 6
-23 8 -26 4 -4 -3 -14 0 -24 8 -9 8 -14 9 -10 3 4 -8 -20 -10 -81 -8 -48 2
-87 4 -87 4 0 1 -75 1 -167 2 -92 0 -166 4 -164 7 6 9 -37 7 -51 -2 -7 -4 -14
-3 -18 3 -4 6 -12 7 -18 3 -16 -10 -97 -10 -97 0 0 4 -7 4 -16 -1 -9 -5 -31
-6 -48 -3 -17 4 -52 6 -78 5 -27 -2 -48 2 -48 7 0 6 -7 6 -17 1 -10 -5 -143
-8 -298 -6 -154 2 -508 4 -788 5 l-507 1 5 25 c2 14 1 22 -3 18 -4 -3 -7 -12
-7 -18 0 -8 -20 -12 -57 -12 -31 0 -54 3 -52 7 3 5 0 8 -6 8 -7 0 -6 5 2 14
15 15 32 0 20 -19 -3 -5 6 -2 21 8 15 9 27 13 27 8 0 -6 7 -8 16 -4 13 5 13 7
2 14 -10 7 -10 9 2 10 50 4 98 1 110 -6 9 -5 11 -4 6 3 -9 15 -1 15 26 1 15
-8 19 -8 14 0 -4 6 0 11 8 11 10 0 13 -6 10 -17 -5 -15 -4 -15 4 -4 13 18 57
27 46 9 -4 -7 -3 -8 4 -4 26 16 52 15 53 -2 0 -14 2 -14 7 -2 4 9 22 15 44 16
21 1 35 -2 32 -7 -2 -4 10 -3 27 3 28 9 34 8 47 -8 11 -15 13 -15 9 -2 -5 13
0 16 21 14 15 -1 33 -6 41 -10 10 -6 12 -5 7 2 -4 7 -1 12 9 12 10 0 13 -5 9
-12 -5 -7 -3 -8 6 -3 17 11 80 12 80 2 0 -4 7 -4 17 1 9 5 34 7 56 4 29 -4 38
-2 33 6 -8 13 20 6 41 -10 7 -5 13 -4 15 3 3 9 9 9 27 -1 13 -6 21 -8 18 -3
-3 4 41 8 98 9 57 0 102 -3 100 -6 -2 -4 2 -7 10 -7 8 0 12 4 10 7 -7 12 129
7 137 -4 5 -7 8 -7 8 2 0 6 7 12 16 12 10 0 14 -6 11 -14 -6 -15 17 -16 30 -1
4 4 2 5 -4 1 -7 -4 -13 -2 -13 4 0 7 7 9 16 6 9 -3 34 -6 55 -6 29 0 38 -3 33
-12 -6 -10 -4 -10 7 0 7 6 25 12 40 12 15 0 30 -6 32 -12 3 -8 6 -5 6 6 1 12
6 16 17 12 9 -3 18 -6 20 -6 3 0 3 -4 0 -8 -3 -5 1 -9 9 -9 8 0 12 4 9 8 -6
10 71 15 124 8 27 -4 42 -2 42 5 0 6 5 4 10 -4 5 -8 10 -10 10 -5 0 6 38 10
94 10 52 0 93 -2 91 -6 -2 -3 2 -6 10 -6 8 0 12 3 10 7 -6 10 67 6 84 -4 10
-6 12 -5 7 2 -10 16 7 15 23 0 11 -11 12 -10 6 2 -8 13 -7 13 10 0 10 -8 16
-10 12 -3 -4 6 -3 14 3 18 5 3 10 1 10 -5 0 -6 5 -8 10 -5 6 3 10 -4 11 -17
l1 -23 6 23 c4 13 10 23 15 23 4 -1 12 -1 18 -1 5 0 7 -5 3 -11 -4 -8 -1 -8
13 -1 12 7 24 7 37 0 12 -7 17 -7 12 0 -11 18 22 21 36 4 7 -10 12 -16 11 -14
-1 2 3 10 10 17 9 10 14 9 23 -3 9 -12 13 -12 19 -2 6 9 4 11 -6 5 -12 -7 -12
-6 0 6 10 11 15 11 18 2 3 -7 9 -13 14 -13 6 0 7 6 3 13 -4 6 2 4 13 -5 11
-10 24 -18 29 -18 5 0 2 4 -6 10 -8 5 -11 12 -7 16 4 4 12 3 19 -4 7 -7 17 -8
29 -1 14 7 21 4 33 -13 9 -12 16 -18 16 -12 0 5 -5 15 -11 21 -13 13 49 12 70
-1 9 -6 12 -5 8 2 -11 16 97 9 119 -8 17 -14 18 -13 6 1 -11 14 -7 16 33 16
54 0 58 3 59 46 l2 33 -176 1 c-373 2 -530 7 -530 16 0 5 -6 5 -13 -1 -13 -11
-30 -10 -58 2 -19 8 -41 5 -51 -9 -5 -6 -8 -5 -8 3 0 6 -5 12 -11 12 -5 0 -7
-6 -3 -12 6 -10 4 -10 -7 0 -7 6 -21 12 -32 12 -12 0 -16 -4 -11 -12 6 -10 5
-10 -7 -1 -19 15 -121 23 -116 8 3 -6 -6 -12 -19 -13 -13 -1 -24 3 -24 9 0 6
7 8 16 5 8 -3 12 -2 9 4 -10 17 -35 11 -36 -7 0 -15 -2 -15 -7 -3 -4 8 -17 16
-29 16 -13 1 -20 -3 -17 -7 3 -5 9 -7 14 -4 5 3 11 2 13 -2 3 -5 -15 -8 -39
-9 -33 0 -44 4 -45 15 0 12 -3 10 -9 -4 -6 -14 -9 -16 -10 -5 -2 8 -2 19 -1
24 1 5 -5 4 -13 -4 -19 -15 -21 -24 -4 -14 7 4 8 3 4 -4 -5 -9 -14 -7 -32 4
-22 15 -24 15 -24 0 0 -10 -5 -14 -10 -11 -6 4 -8 10 -5 14 6 11 -54 6 -63 -4
-4 -5 1 -5 11 -2 10 4 16 3 12 -2 -3 -6 -14 -9 -25 -8 -10 1 -17 4 -14 8 2 4
-1 11 -7 15 -8 4 -9 3 -5 -5 4 -6 0 -14 -9 -18 -10 -3 -21 0 -26 8 -7 11 -9
11 -9 1 0 -8 -6 -12 -12 -9 -7 2 -12 10 -10 16 1 7 -2 10 -8 6 -6 -3 -8 -11
-5 -16 4 -5 1 -9 -4 -9 -6 0 -11 4 -11 9 0 8 -27 8 -65 1 -6 -1 -13 -1 -17 0
-20 6 -34 5 -40 -5 -5 -7 -8 -6 -8 1 0 12 -57 13 -76 1 -6 -3 -16 -2 -24 3 -9
5 -19 5 -27 -2 -7 -6 -13 -7 -13 -2 0 5 -41 9 -90 9 -50 0 -90 -4 -90 -9 0 -5
-7 -3 -15 4 -8 6 -19 9 -25 5 -6 -4 -18 -1 -27 7 -14 11 -15 11 -9 0 6 -10 3
-13 -10 -11 -11 2 -25 0 -31 -4 -7 -5 -13 -5 -13 0 0 4 -33 8 -72 7 -40 0 -85
3 -101 7 -15 4 -25 4 -22 -1 3 -5 -3 -8 -14 -7 -11 0 -17 5 -15 9 7 11 -4 10
-27 -2 -13 -8 -19 -7 -19 0 0 8 -6 8 -20 0 -14 -8 -20 -8 -20 0 0 8 -6 8 -20
0 -15 -8 -20 -8 -20 2 0 8 -3 9 -8 3 -6 -9 -26 -15 -57 -17 -5 0 -23 3 -40 7
-16 3 -37 6 -45 5 -8 -1 -36 -2 -62 -3 -26 -1 -44 -5 -41 -11 4 -5 1 -6 -6 -1
-7 4 -34 8 -60 10 -52 3 -95 21 -86 36 4 5 2 9 -3 9 -20 0 -21 -29 -1 -35 11
-4 18 -9 16 -12 -3 -2 -15 0 -26 7 -16 8 -19 15 -12 28 5 9 10 22 11 27 1 6 4
12 7 15 4 3 3 0 0 -6 -4 -7 0 -15 9 -18 8 -3 12 -11 8 -17 -4 -8 -3 -9 4 -5 8
5 9 13 3 25 -8 14 -5 17 12 18 12 1 37 3 55 5 17 2 32 0 32 -5 0 -5 6 -5 13 2
10 7 17 7 24 0 8 -8 13 -8 17 0 4 6 12 11 17 11 6 0 7 -6 3 -12 -6 -10 -4 -10
7 -2 21 16 139 17 139 1 0 -8 3 -9 8 -1 9 14 43 14 61 0 11 -8 13 -8 8 0 -4 7
5 11 24 12 20 0 27 -3 23 -11 -5 -8 -3 -8 7 1 7 6 24 12 37 12 16 0 21 -4 16
-12 -6 -10 -4 -10 7 0 7 6 17 12 22 12 4 0 5 -6 1 -12 -5 -8 0 -7 11 2 14 11
19 12 22 3 3 -7 9 -13 14 -13 6 0 8 4 5 9 -3 4 33 8 79 8 59 0 83 -3 78 -11
-3 -6 0 -5 8 2 7 6 24 12 37 12 16 0 21 -4 16 -12 -6 -10 -4 -10 7 -2 18 15
111 15 102 1 -4 -6 -1 -7 8 -1 22 13 43 14 51 1 6 -9 8 -9 8 1 0 7 5 10 10 7
6 -4 8 -12 4 -18 -3 -7 0 -5 8 3 15 17 99 21 110 5 5 -6 8 -6 8 0 0 14 70 15
71 1 0 -6 4 -2 9 9 5 11 9 15 9 9 1 -5 16 -9 33 -8 18 1 36 -3 40 -9 6 -9 8
-9 8 0 0 6 19 12 48 12 26 1 61 2 77 4 22 1 29 -3 27 -13 -2 -13 -1 -13 10 0
13 15 89 19 123 6 10 -3 14 -2 10 5 -9 14 48 -1 57 -15 5 -7 8 -5 8 6 0 14 5
15 30 8 16 -5 30 -5 30 0 0 10 40 1 58 -13 9 -7 11 -6 7 5 -5 12 0 14 22 11
15 -2 37 -4 48 -4 10 0 26 -5 34 -12 12 -9 13 -9 7 0 -5 10 6 13 48 12 32 -1
53 -6 50 -11 -3 -5 3 -4 14 3 16 10 24 10 35 1 11 -10 17 -9 27 3 8 9 17 12
24 6 6 -4 20 -7 31 -5 10 1 25 -2 32 -8 11 -8 12 -7 6 8 -6 17 -5 18 12 4 10
-8 16 -10 13 -4 -4 6 6 10 28 11 21 1 32 -3 27 -10 -4 -6 -1 -7 7 -2 19 12 90
16 90 6 0 -5 -6 -12 -12 -14 -10 -4 -10 -6 0 -6 7 -1 15 5 18 12 3 10 36 14
125 15 145 2 178 14 171 61 l-4 31 -202 1 c-110 1 -216 1 -233 1 -19 0 -33 5
-33 11 0 7 -4 6 -10 -3 -9 -13 -10 -13 -10 0 0 9 -3 11 -8 5 -4 -5 -14 -10
-22 -10 -8 0 -18 5 -22 10 -5 7 -8 7 -8 0 0 -13 -90 -13 -90 0 0 5 -4 4 -9 -4
-6 -9 -11 -10 -15 -2 -5 8 -13 8 -26 1 -12 -6 -21 -7 -25 0 -3 5 -16 6 -28 2
-27 -9 -80 -8 -96 2 -6 4 -11 2 -11 -4 0 -8 -6 -8 -20 0 -11 6 -20 7 -20 3 0
-9 -94 -8 -109 1 -5 4 -13 2 -16 -4 -5 -7 -11 -8 -19 -1 -7 6 -26 7 -49 1 -26
-5 -37 -4 -37 4 0 6 -5 4 -10 -4 -5 -8 -10 -10 -10 -5 0 6 -22 10 -49 10 -31
0 -47 -3 -43 -10 3 -5 -2 -4 -11 4 -9 7 -17 10 -17 6 0 -4 -8 -1 -17 6 -10 8
-14 9 -10 2 6 -9 -2 -10 -29 -6 -29 5 -35 3 -29 -7 6 -9 4 -11 -5 -5 -15 9
-104 10 -119 1 -5 -4 -12 -3 -14 2 -3 4 -43 6 -89 5 -46 -2 -137 -3 -203 -3
-144 1 -129 1 -190 -3 -27 -1 -58 1 -67 5 -11 5 -27 4 -39 -2 -15 -8 -24 -8
-34 0 -9 8 -15 8 -20 0 -4 -7 -12 -7 -26 0 -14 8 -19 7 -19 -2 0 -9 -3 -9 -12
0 -7 7 -17 8 -29 2 -11 -6 -20 -6 -23 -1 -7 10 -25 9 -43 -2 -7 -5 -17 -6 -23
-2 -10 6 -141 7 -243 3 -31 -2 -57 -1 -57 2 0 3 -15 5 -34 5 -19 -1 -35 1 -34
4 2 19 -3 24 -11 12 -7 -10 -9 -8 -8 10 0 13 -3 31 -6 39 -5 10 1 19 19 27 23
11 25 10 20 -5 -6 -16 -5 -15 7 0 10 12 25 17 51 15 20 -2 35 -7 34 -13 -2 -5
-6 -8 -9 -7 -3 1 -6 -5 -6 -13 0 -12 4 -11 18 2 10 9 16 21 13 25 -3 5 2 9 11
9 9 0 13 -5 10 -10 -4 -6 -3 -10 2 -9 4 1 10 0 13 -1 19 -7 41 -7 45 0 3 5 -3
7 -15 5 -11 -2 -22 0 -25 6 -4 5 16 9 45 9 36 0 49 -3 44 -12 -5 -7 -3 -8 7
-2 8 5 25 10 37 12 17 2 22 -1 16 -10 -6 -10 -4 -10 7 -2 22 16 93 18 83 2 -6
-11 -5 -11 8 0 13 10 17 10 21 0 4 -10 6 -10 6 0 1 6 6 12 12 12 5 0 7 -6 3
-12 -4 -7 -4 -10 1 -6 4 4 17 3 29 -3 21 -10 21 -10 1 6 -19 15 -16 16 37 14
39 -1 55 -6 51 -13 -5 -8 -3 -8 8 0 16 12 122 17 115 5 -3 -4 1 -8 9 -8 8 0
11 5 8 10 -4 6 0 8 10 4 10 -4 20 0 26 11 9 15 10 15 11 -3 1 -11 4 -14 7 -7
2 6 9 12 14 12 6 0 7 -5 3 -12 -5 -7 -3 -8 7 -2 22 13 73 14 81 1 6 -9 8 -9 8
1 0 6 9 12 21 12 11 0 18 -4 14 -9 -3 -5 0 -13 6 -17 8 -4 9 -3 5 4 -8 13 28
35 39 24 7 -7 45 -11 103 -11 21 0 31 -4 27 -11 -4 -6 -1 -9 7 -8 7 2 12 -2
11 -8 -1 -6 5 -11 13 -11 12 0 12 3 -1 17 -18 20 -20 34 -3 24 18 -11 48 -12
48 -2 0 5 5 6 10 3 6 -4 7 -12 3 -18 -4 -7 0 -6 10 2 9 7 17 9 17 4 0 -5 7
-10 15 -10 11 0 12 4 3 14 -8 11 -7 12 6 7 9 -3 16 -11 16 -16 0 -6 6 -5 15 2
12 10 18 9 32 -7 10 -10 15 -14 10 -7 -4 7 -1 14 8 18 8 3 15 0 15 -6 0 -9 3
-9 11 -1 12 12 42 6 34 -7 -3 -5 6 -3 19 3 13 7 22 16 19 21 -4 5 -1 6 6 2 6
-4 9 -11 6 -16 -7 -12 30 -19 49 -8 9 5 14 13 11 19 -3 5 1 6 9 3 9 -3 16 -10
16 -16 0 -5 -5 -6 -12 -2 -7 4 -8 3 -4 -5 6 -9 11 -9 22 0 7 6 12 15 9 18 -2
4 2 8 10 8 18 0 20 -14 3 -20 -10 -3 -10 -8 1 -18 9 -9 11 -9 7 -1 -6 11 0 14
20 11 4 0 11 5 15 13 5 7 9 8 9 3 0 -6 12 -12 26 -13 15 -1 34 -7 43 -14 13
-10 14 -10 4 2 -13 14 -19 39 -6 27 3 -4 13 -1 22 6 14 11 15 10 1 -7 -14 -18
-13 -19 8 -14 13 4 22 2 22 -5 0 -8 4 -7 12 1 14 14 32 16 23 3 -3 -5 -1 -13
5 -16 6 -4 9 -1 8 7 -2 9 8 12 35 10 28 -2 37 0 31 9 -4 7 -3 9 4 5 5 -3 13 0
15 6 4 10 6 9 6 -1 1 -11 4 -11 19 0 15 12 16 12 5 -2 -11 -14 -9 -16 17 -17
17 0 28 3 25 8 -3 5 8 4 25 -1 21 -8 34 -8 43 -1 14 12 51 -10 39 -23 -4 -5
-1 -5 6 -1 7 4 10 11 7 16 -3 5 9 7 27 6 23 -2 39 4 52 18 13 15 17 16 13 5
-5 -15 5 -16 79 -15 67 1 84 4 84 16 0 13 1 13 10 0 8 -12 11 -13 19 -1 7 11
9 11 14 0 4 -11 6 -11 7 1 0 10 6 6 16 -10 8 -14 13 -17 10 -8 -3 10 -1 20 4
23 6 4 10 2 10 -3 0 -6 7 -13 16 -16 8 -3 13 -2 10 3 -6 9 40 21 79 21 13 0
26 -6 28 -12 4 -10 6 -10 6 0 1 6 9 12 19 12 14 0 15 -2 2 -10 -9 -6 -10 -10
-3 -10 6 0 15 5 18 10 3 6 15 10 26 10 11 0 18 -4 15 -8 -3 -5 1 -9 9 -9 8 0
12 4 9 9 -3 4 0 8 5 8 6 0 11 -4 11 -10 0 -5 7 -10 16 -10 8 0 13 4 10 8 -3 5
1 9 9 9 8 0 12 -4 9 -9 -3 -4 2 -8 11 -8 10 0 14 5 9 13 -6 10 -4 10 7 0 15
-14 43 -18 35 -5 -3 5 1 9 9 9 8 0 12 -4 9 -9 -7 -11 0 -10 30 5 14 8 23 17
19 20 -3 4 1 7 10 7 10 0 17 -5 17 -11 0 -5 5 -7 11 -4 6 4 8 13 5 21 -3 7 -1
16 5 19 5 4 3 12 -5 21 -12 12 -91 14 -488 14 -439 0 -610 3 -763 13 -33 2
-68 0 -77 -5 -11 -5 -18 -5 -18 1 0 6 -12 6 -32 1 -19 -6 -36 -6 -43 0 -6 5
-17 5 -25 0 -9 -6 -20 -4 -29 3 -12 9 -13 9 -7 0 9 -16 -6 -17 -22 -1 -7 7
-12 8 -12 2 0 -6 -22 -10 -50 -10 -27 1 -50 6 -50 11 0 7 -3 7 -8 0 -9 -13
-42 -15 -42 -3 0 7 -5 7 -13 0 -16 -14 -59 -12 -69 3 -5 7 -8 6 -8 -2 0 -12
-139 -11 -160 2 -5 3 -10 3 -10 -2 0 -4 -16 -8 -35 -9 -22 0 -32 3 -28 10 4 7
1 6 -8 -1 -10 -8 -80 -11 -230 -11 -119 0 -222 -2 -227 -6 -6 -3 -13 -3 -15 2
-3 4 -37 5 -77 2 -39 -3 -76 -2 -82 1 -5 4 -25 3 -43 -1 -21 -5 -38 -3 -44 3
-6 6 -11 7 -11 2 0 -6 -13 -10 -30 -10 -16 0 -30 4 -30 10 0 5 -4 5 -10 -1 -5
-5 -26 -8 -46 -6 -27 3 -33 7 -23 14 10 7 8 8 -9 5 -18 -4 -21 -3 -12 8 8 10
7 14 -2 18 -10 4 -10 7 1 15 9 7 10 12 2 16 -6 4 -11 2 -11 -4 0 -7 -5 -10
-11 -8 -6 2 -10 7 -9 12 1 5 -4 13 -12 18 -9 6 -5 7 12 3 l25 -7 -23 17 c-15
11 -22 24 -19 36 3 11 1 19 -5 19 -5 0 -6 6 -2 13 5 8 2 7 -9 -2 -15 -12 -17
-12 -11 3 3 9 2 16 -3 16 -5 0 -9 10 -8 22 1 13 -8 31 -19 41 -12 10 -16 16
-9 13 6 -4 15 -2 18 4 4 6 3 10 -2 9 -19 -3 -25 2 -14 14 8 10 7 14 -4 14 -8
0 -11 -5 -8 -11 3 -6 0 -5 -8 2 -8 7 -15 17 -15 23 -1 5 -2 14 -3 20 0 5 -6 7
-13 3 -7 -5 -8 -3 -3 6 6 10 11 9 21 -5 7 -10 11 -22 7 -28 -3 -6 -1 -7 6 -3
9 6 8 13 -3 31 -12 18 -13 25 -3 29 6 3 3 4 -9 1 -12 -3 -27 1 -34 10 -8 10
-9 15 -1 15 6 0 11 -6 11 -12 0 -7 5 -5 11 5 6 10 8 21 5 24 -3 4 -6 0 -6 -7
0 -9 -5 -7 -16 6 -8 10 -12 13 -8 5 4 -9 3 -12 -4 -7 -6 4 -9 12 -6 19 3 8 -2
26 -10 42 -8 16 -12 33 -9 38 3 6 1 7 -6 3 -6 -4 -8 -12 -5 -18 4 -7 2 -8 -4
-4 -6 4 -8 14 -5 23 5 12 3 14 -8 8 -11 -7 -11 -5 1 10 8 10 10 16 3 12 -7 -5
-12 -1 -12 10 -1 40 -5 52 -15 50 -6 -1 -10 7 -8 18 2 16 1 17 -7 5 -7 -10
-11 -11 -11 -2 0 6 -7 12 -15 12 -13 0 -14 4 -4 23 11 20 11 21 -5 8 -9 -8
-16 -10 -15 -5 4 25 -1 36 -14 26 -10 -8 -13 -6 -13 7 0 12 6 17 16 14 10 -3
10 -1 -3 7 -9 6 -21 9 -26 5 -5 -3 -12 -1 -15 4 -4 5 -1 13 5 17 8 5 9 3 4 -6
-5 -9 -4 -11 4 -6 17 11 4 25 -20 21 -18 -4 -19 -2 -7 12 11 15 10 16 -9 11
-12 -3 -21 -3 -20 1 1 3 -6 17 -16 31 -9 13 -17 21 -17 16 0 -5 -6 -4 -12 2
-9 7 -239 10 -693 9 l-679 -1 -22 -23z m1600 -222 c3 -5 -1 -11 -9 -14 -9 -4
-12 -1 -8 9 6 16 10 17 17 5z m2576 -675 c0 -3 -4 -8 -10 -11 -5 -3 -10 -1
-10 4 0 6 5 11 10 11 6 0 10 -2 10 -4z m-460 -15 c0 -4 -11 -6 -25 -3 -14 2
-25 6 -25 8 0 2 11 4 25 4 14 0 25 -4 25 -9z m-340 -7 c0 -8 -19 -13 -24 -6
-3 5 1 9 9 9 8 0 15 -2 15 -3z m-1480 -244 c0 -5 -5 -10 -11 -10 -5 0 -7 5 -4
10 3 6 8 10 11 10 2 0 4 -4 4 -10z m120 -180 c0 -5 -5 -10 -11 -10 -5 0 -7 5
-4 10 3 6 8 10 11 10 2 0 4 -4 4 -10z m-1180 -172 c0 -7 -5 -6 -13 1 -8 6 -18
7 -22 3 -5 -4 -5 -2 -1 5 8 14 36 6 36 -9z m5 -28 c-3 -5 -1 -10 4 -12 4 -1
11 -14 15 -28 5 -17 4 -21 -2 -11 -6 8 -12 9 -16 3 -3 -6 2 -13 13 -17 11 -3
22 -13 25 -21 4 -10 1 -13 -7 -9 -6 4 -1 -3 13 -15 21 -19 22 -21 5 -16 -19 6
-19 6 -1 -8 10 -9 16 -22 13 -30 -4 -9 -1 -15 5 -13 6 1 13 -4 16 -12 3 -9 0
-11 -9 -7 -8 4 -6 1 4 -7 9 -8 17 -21 17 -30 0 -8 5 -17 12 -19 7 -3 9 -12 4
-24 -9 -24 -9 -29 3 -29 13 0 20 -9 24 -31 2 -10 20 -53 40 -94 21 -41 37 -83
37 -93 0 -10 5 -27 10 -37 6 -10 11 -30 12 -44 1 -15 9 -26 18 -27 10 0 11 -2
3 -6 -10 -4 -10 -9 -1 -26 7 -12 11 -25 10 -29 -1 -5 2 -8 8 -8 6 0 9 -3 8 -7
-1 -5 4 -20 10 -34 6 -15 12 -35 14 -45 2 -11 10 -24 18 -30 12 -10 12 -14 1
-28 -12 -14 -12 -16 4 -9 14 5 17 3 12 -10 -4 -12 -2 -14 11 -10 9 3 14 3 10
-2 -4 -4 -3 -13 2 -20 5 -6 11 -28 12 -48 2 -20 6 -37 11 -37 4 0 7 -5 7 -11
0 -5 -4 -8 -9 -5 -11 7 -8 -21 4 -31 4 -4 5 -2 1 5 -4 6 -2 12 4 12 10 0 27
-56 22 -72 -1 -5 3 -8 9 -8 6 0 9 -7 6 -15 -4 -8 -2 -17 3 -20 5 -3 7 -14 5
-25 -2 -12 0 -18 5 -15 8 5 23 -32 25 -58 0 -4 5 -11 11 -15 16 -11 27 -44 11
-37 -6 4 -3 -1 8 -10 17 -14 18 -17 5 -25 -9 -6 -10 -10 -3 -10 13 0 31 -28
36 -57 2 -10 8 -27 14 -38 12 -23 6 -48 -9 -39 -7 5 -8 2 -3 -5 5 -9 10 -10
18 -2 7 7 16 -5 29 -41 21 -62 21 -61 6 -53 -7 4 -5 0 5 -8 9 -8 17 -21 17
-30 0 -9 4 -18 9 -21 4 -3 11 -18 14 -33 3 -16 9 -37 13 -48 6 -16 5 -18 -7
-7 -7 6 -17 12 -22 12 -5 0 2 -9 17 -21 34 -26 75 -102 46 -84 -5 3 -10 1 -10
-4 0 -6 7 -11 16 -11 10 0 14 -6 10 -15 -3 -8 -1 -15 5 -15 6 0 8 -4 4 -9 -3
-5 -1 -12 5 -16 6 -4 8 -10 5 -15 -3 -5 -1 -11 5 -15 5 -3 10 -15 10 -26 0
-10 4 -19 9 -19 9 0 49 -92 54 -125 1 -11 6 -25 9 -30 4 -6 4 -15 0 -20 -9
-12 -1262 -14 -1262 -2 0 5 -4 5 -10 2 -15 -10 -87 -13 -101 -5 -6 4 -25 4
-41 -1 -16 -4 -39 -4 -51 0 -12 5 -34 5 -49 0 -16 -4 -30 -3 -34 2 -3 5 -9 7
-14 4 -4 -3 -13 2 -20 10 -7 8 -9 15 -5 15 4 0 2 6 -4 14 -9 11 -9 16 0 22 8
4 9 3 5 -4 -4 -7 -3 -12 3 -12 5 0 9 9 8 19 0 11 -5 17 -11 14 -5 -4 -7 1 -3
10 4 12 0 14 -20 11 l-25 -5 29 26 c24 23 25 25 5 15 -13 -6 -26 -9 -30 -6 -3
3 0 6 6 6 6 0 9 7 6 15 -4 8 -1 15 6 15 6 0 8 -5 4 -12 -6 -10 -3 -9 8 0 10 8
14 20 11 29 -4 10 -2 14 4 10 7 -4 10 0 9 10 -2 12 -11 17 -27 16 l-24 -3 23
10 c12 5 22 14 22 20 0 6 6 8 13 4 6 -4 3 3 -8 16 l-20 24 35 -24 c22 -15 30
-18 21 -7 -7 9 -10 17 -7 17 4 0 2 9 -4 20 -8 15 -6 21 10 30 19 10 19 13 5
43 -10 20 -11 26 -3 17 7 -8 20 -16 28 -18 11 -3 10 1 -3 16 -12 13 -15 22 -7
27 6 3 9 1 8 -6 -2 -6 2 -13 9 -16 12 -5 12 14 -1 35 -4 7 -5 16 -2 19 3 4 6
1 6 -5 0 -7 7 -12 16 -12 14 0 14 1 0 16 -20 19 -20 25 -1 18 10 -4 15 0 15
11 0 10 -4 13 -12 9 -9 -5 -9 -2 1 9 16 20 25 23 15 5 -4 -8 -3 -10 2 -5 9 9
11 14 13 48 0 11 6 17 11 14 13 -8 8 18 -5 27 -5 4 1 8 14 8 24 0 24 0 5 16
-10 8 -13 13 -6 9 6 -3 12 -1 12 5 0 6 5 8 13 4 9 -6 9 -4 -1 8 -10 13 -10 17
3 21 9 4 12 13 8 23 -4 11 -3 15 5 10 7 -4 8 2 2 23 -7 24 -5 29 6 24 8 -3 11
-10 7 -17 -3 -6 -2 -8 2 -3 10 9 15 48 5 42 -4 -2 -7 2 -7 9 0 8 6 12 13 9 6
-2 15 1 19 7 3 6 1 9 -6 8 -6 -2 -14 3 -17 11 -3 9 0 11 8 6 10 -6 12 -3 6 10
-5 15 -4 16 9 5 14 -11 14 -10 6 12 -10 27 -6 38 13 38 6 0 4 -5 -4 -10 -9 -6
-10 -10 -3 -10 17 0 25 17 12 26 -8 4 -7 9 2 15 12 7 11 9 -1 9 -9 1 -6 5 7
10 19 8 21 13 13 34 -8 21 -6 26 12 32 14 4 17 9 8 14 -9 5 -8 9 3 13 10 4 13
13 10 26 -3 13 0 23 10 27 9 3 13 12 10 21 -5 12 -3 14 8 8 12 -8 12 -6 0 8
-12 15 -11 17 2 17 9 0 19 5 22 10 4 6 3 10 -2 9 -21 -4 -24 3 -6 19 10 9 14
15 8 12 -6 -3 -3 2 6 11 12 11 14 20 8 32 -6 10 -5 18 2 23 7 4 9 3 5 -4 -3
-6 -2 -13 3 -16 11 -7 9 13 -3 33 -6 10 -5 12 3 7 8 -5 11 -3 9 7 -2 9 6 23
17 32 11 9 14 14 8 10 -7 -3 -13 -2 -13 3 0 6 7 12 15 16 8 3 15 10 15 16 0 6
-5 8 -11 5 -6 -4 -5 2 3 14 7 12 17 21 22 21 4 0 2 8 -5 17 -8 9 -9 14 -3 10
7 -4 14 0 17 7 3 8 1 17 -6 20 -7 2 -4 5 6 5 9 1 17 6 17 12 0 5 -5 7 -12 3
-7 -4 -8 -3 -4 5 4 6 12 9 17 6 5 -4 9 1 9 9 0 26 1 30 13 45 10 12 9 13 -1 7
-11 -7 -12 -4 -3 13 7 11 14 21 17 21 3 0 2 -4 -1 -10 -3 -6 1 -7 10 -4 14 6
14 8 -2 20 -16 12 -17 13 -1 14 9 0 20 5 24 12 4 7 3 8 -4 4 -7 -4 -12 -1 -12
9 0 11 5 15 14 12 11 -5 13 0 6 25 -8 26 -7 28 6 17 12 -10 13 -9 8 6 -6 14
-4 16 7 10 12 -8 12 -6 0 8 -12 15 -11 17 4 17 15 0 16 2 4 17 -12 14 -12 16
0 8 11 -6 13 -4 8 8 -3 10 -2 17 3 17 5 0 7 8 4 18 -5 16 -5 16 8 1 12 -15 14
-11 13 30 0 28 4 45 11 44 6 -1 16 9 22 22 10 21 9 23 -5 18 -11 -4 -14 -3 -9
5 4 7 13 12 21 12 8 0 12 9 10 25 -1 14 4 29 11 33 7 4 14 22 16 40 2 29 9 37
31 33 5 -1 6 3 2 9 -3 6 -12 7 -18 3 -8 -5 -8 -2 0 9 7 8 9 19 5 23 -4 5 0 6
10 2 25 -9 30 4 11 26 -11 13 -12 17 -4 12 11 -6 13 -4 8 7 -3 9 -3 18 -1 21
8 8 44 -5 39 -13z m1292 -67 c0 -8 -4 -10 -12 -3 -7 5 -16 6 -20 2 -5 -4 -5
-2 -2 4 9 15 34 13 34 -3z m83 -125 c0 -5 -4 -6 -10 -3 -5 3 -10 -1 -10 -10 0
-9 5 -13 10 -10 6 3 10 1 10 -4 0 -18 -19 -12 -30 9 -6 11 -15 18 -21 15 -5
-4 -9 -2 -9 3 0 5 14 9 30 9 17 0 30 -4 30 -9z m-73 -20 c-3 -8 -6 -5 -6 6 -1
11 2 17 5 13 3 -3 4 -12 1 -19z m-720 6 c-3 -3 -12 -4 -19 -1 -8 3 -5 6 6 6
11 1 17 -2 13 -5z m767 -33 c3 -4 -4 -7 -14 -8 -11 -1 -22 2 -24 6 -3 4 4 7
14 8 11 1 22 -2 24 -6z m66 -160 c0 -4 -12 -14 -26 -21 -21 -12 -27 -12 -34 0
-5 8 -7 17 -5 20 5 8 65 9 65 1z m30 -1 c0 -5 -5 -10 -11 -10 -5 0 -8 -4 -5
-8 3 -5 -1 -9 -8 -9 -11 0 -12 4 -3 19 13 20 27 24 27 8z m50 0 c0 -6 10 -15
23 -20 22 -9 22 -9 1 -9 -12 -1 -24 6 -28 14 -3 8 -12 12 -21 9 -8 -3 -15 -1
-15 5 0 6 9 11 20 11 11 0 20 -5 20 -10z m444 -766 c5 -14 4 -15 -9 -4 -17 14
-19 20 -6 20 5 0 12 -7 15 -16z m-796 -373 c11 -7 10 -9 -3 -14 -9 -4 -14 -3
-10 2 3 5 -1 12 -7 14 -7 3 -8 6 -3 6 6 0 16 -3 23 -8z m959 -33 c2 -17 0 -19
-7 -8 -5 8 -6 18 -4 22 8 12 10 10 11 -14z m-939 -33 c-3 -3 -9 2 -12 12 -6
14 -5 15 5 6 7 -7 10 -15 7 -18z m992 -55 c0 -5 -4 -10 -10 -10 -5 0 -10 5
-10 10 0 6 5 10 10 10 6 0 10 -4 10 -10z m-945 -30 c-3 -5 -1 -11 4 -14 4 -3
11 -24 15 -45 6 -39 51 -95 67 -85 4 2 10 1 13 -4 9 -16 -29 -9 -42 7 -11 14
-11 14 -6 -1 3 -10 1 -18 -5 -18 -6 0 -10 3 -9 8 1 4 -4 21 -11 37 -7 17 -15
45 -18 62 -3 18 -9 30 -13 28 -5 -3 -7 3 -5 12 1 10 -3 25 -9 33 -10 13 -9 13
6 1 10 -7 16 -17 13 -21z m-1958 -80 c-2 -23 -10 -17 -12 10 -1 10 2 17 6 14
4 -2 7 -13 6 -24z m-8 -47 c10 -24 9 -26 -2 -11 -8 10 -16 16 -19 13 -2 -3 -5
2 -5 10 0 24 13 18 26 -12z m-38 -56 c-10 -9 -11 -8 -5 6 3 10 9 15 12 12 3
-3 0 -11 -7 -18z m1946 -33 c-3 -3 -12 -4 -19 -1 -8 3 -5 6 6 6 11 1 17 -2 13
-5z m-1952 -23 c-3 -6 -11 -11 -16 -11 -5 0 -4 6 3 14 14 16 24 13 13 -3z
m2147 -52 c2 -2 1 -3 -1 -2 -2 2 -10 -2 -18 -9 -7 -6 -16 -8 -20 -4 -3 3 -1 6
6 6 7 0 10 4 7 9 -4 5 1 8 9 7 8 -1 16 -4 17 -7z m26 -99 c8 -21 8 -32 0 -36
-7 -4 -8 -2 -4 4 4 7 4 12 -1 12 -4 0 -9 11 -9 25 -2 33 2 32 14 -5z m-2163
-9 c-3 -5 -1 -12 5 -16 5 -3 10 -11 10 -16 0 -6 -7 -3 -16 5 -13 14 -12 36 2
36 3 0 3 -4 -1 -9z m2182 -38 c-4 -3 0 -15 10 -25 9 -10 12 -18 8 -18 -4 0 0
-9 10 -20 10 -11 15 -20 10 -20 -4 0 -2 -7 5 -15 7 -8 9 -15 6 -15 -4 0 0 -7
8 -16 9 -8 14 -20 11 -25 -4 -5 -2 -9 3 -9 4 0 19 -26 31 -57 13 -32 30 -73
38 -92 8 -19 16 -44 17 -56 0 -13 5 -21 10 -18 4 3 5 -5 1 -17 -4 -14 -3 -20
3 -16 11 7 25 -21 16 -35 -3 -5 0 -9 5 -9 6 0 10 -3 9 -7 -1 -5 8 -30 21 -58
12 -27 24 -60 24 -72 1 -11 5 -19 9 -17 7 4 21 -14 24 -31 1 -5 9 -27 18 -47
9 -21 13 -38 9 -38 -5 0 -3 -4 3 -8 15 -10 72 -133 76 -164 2 -14 9 -33 16
-41 10 -12 9 -16 -4 -21 -9 -4 -19 -4 -22 -1 -3 3 0 5 6 5 7 0 12 5 12 11 0 5
-6 7 -12 3 -7 -4 -10 -4 -6 0 3 4 -1 16 -9 26 -15 17 -37 67 -50 115 l-5 20
16 -20 c13 -17 15 -17 10 -2 -4 10 -15 22 -25 28 -10 5 -18 13 -17 17 1 4 -3
17 -10 30 -7 12 -10 28 -6 34 4 6 3 8 -3 5 -14 -9 -57 98 -47 114 4 7 3 9 -4
5 -12 -7 -22 5 -28 37 -2 12 -17 57 -34 100 -17 43 -28 83 -24 88 3 5 1 9 -4
9 -8 0 -34 64 -33 85 0 6 -10 15 -22 22 -12 7 -17 12 -12 13 6 0 11 9 12 20 1
11 -2 18 -6 16 -4 -3 -12 4 -19 15 -10 15 -10 19 0 19 7 1 3 6 -8 13 -12 7
-20 20 -19 29 2 10 -1 20 -6 24 -5 3 -7 10 -4 15 4 5 1 9 -5 9 -7 0 -10 6 -7
14 3 8 -1 20 -8 26 -14 11 -12 30 2 30 4 0 3 -3 0 -7z m420 -999 c-3 -4 -14
-3 -24 0 -15 6 -15 8 -3 16 16 10 39 -4 27 -16z m7 -26 c-3 -4 -11 -5 -19 -1
-21 7 -19 12 4 10 11 0 18 -5 15 -9z m13 -15 c-4 -3 -2 -12 4 -20 6 -7 8 -13
3 -13 -5 0 -2 -5 6 -11 11 -8 12 -12 2 -16 -6 -2 -9 -10 -6 -15 4 -7 2 -8 -4
-4 -6 4 -8 14 -5 23 5 12 3 14 -7 8 -9 -5 -11 -4 -6 3 4 7 1 12 -6 12 -9 0 -9
3 2 10 8 5 11 10 7 10 -9 0 1 20 10 20 4 0 3 -3 0 -7z m-305 -540 c-6 -2 -9
-10 -6 -15 4 -7 2 -8 -5 -4 -13 9 -5 26 12 25 9 0 8 -2 -1 -6z m282 -28 c-9
-14 -18 -25 -20 -25 -7 0 10 35 20 42 17 12 17 9 0 -17z m-307 -27 c-3 -7 -5
-2 -5 12 0 14 2 19 5 13 2 -7 2 -19 0 -25z m253 2 c0 -16 0 -32 0 -35 0 -3 -3
-4 -7 -2 -9 3 -10 67 0 67 4 0 7 -13 7 -30z m-142 -9 c1 -34 -23 -60 -39 -44
-8 8 -6 11 7 10 12 -1 20 5 20 18 3 40 4 45 7 45 2 0 4 -13 5 -29z m292 14 c0
-8 -4 -15 -10 -15 -5 0 -7 7 -4 15 4 8 8 15 10 15 2 0 4 -7 4 -15z m-393 -57
c-3 -7 -5 -2 -5 12 0 14 2 19 5 13 2 -7 2 -19 0 -25z m-62 11 c-4 -6 -13 -8
-20 -5 -7 2 -18 -1 -24 -7 -8 -8 -11 -7 -11 6 0 12 8 17 31 17 19 0 28 -4 24
-11z m-1475 -205 c0 -19 -4 -34 -10 -34 -11 0 -11 0 -14 52 -2 31 0 36 11 27
7 -6 13 -27 13 -45z m-132 17 c8 -10 9 -17 2 -19 -5 -2 -10 -8 -10 -13 0 -6 5
-7 12 -3 7 4 8 3 4 -4 -7 -12 -27 -11 -59 3 -14 6 -17 14 -12 32 4 18 2 23 -6
17 -8 -4 -9 -3 -5 4 9 16 57 5 74 -17z m-91 -3 c-3 -8 -6 -5 -6 6 -1 11 2 17
5 13 3 -3 4 -12 1 -19z m163 -8 c0 -18 -5 -30 -13 -30 -14 0 -19 23 -11 48 7
24 24 12 24 -18z m168 -5 c-1 -19 -6 -35 -11 -35 -5 0 -7 6 -4 13 3 7 -1 21
-9 32 -14 18 -14 18 -15 -3 -2 -35 -3 -40 -12 -49 -10 -9 -3 50 8 66 3 6 15
11 26 11 16 0 19 -6 17 -35z m89 -3 c1 -18 -3 -32 -9 -32 -6 0 -8 13 -6 30 2
16 1 32 -4 34 -5 2 -3 3 4 2 7 -1 14 -17 15 -34z m70 9 c-3 -17 -1 -32 4 -35
5 -2 4 -3 -3 -2 -7 2 -12 10 -12 19 1 10 2 24 3 32 0 8 4 15 7 15 3 0 3 -13 1
-29z m-38 -25 c-9 -8 -10 -7 -5 7 3 10 7 24 7 30 1 7 3 4 6 -7 3 -10 -1 -23
-8 -30z m-453 -13 c-10 -10 -19 5 -10 18 6 11 8 11 12 0 2 -7 1 -15 -2 -18z
m374 17 c0 -5 -2 -10 -4 -10 -3 0 -8 5 -11 10 -3 6 -1 10 4 10 6 0 11 -4 11
-10z m670 -438 c0 -5 -7 -17 -16 -28 -8 -10 -12 -13 -8 -5 3 7 0 18 -7 23 -11
8 -10 9 4 4 9 -3 17 -1 17 4 0 6 2 10 5 10 3 0 5 -4 5 -8z m699 -61 c-6 -2
-16 2 -22 9 -9 10 -9 11 1 6 7 -4 12 -2 12 6 0 9 3 9 10 -2 6 -10 6 -16 -1
-19z m-46 2 c-7 -2 -19 -2 -25 0 -7 3 -2 5 12 5 14 0 19 -2 13 -5z m124 1 c-3
-3 -12 -4 -19 -1 -8 3 -5 6 6 6 11 1 17 -2 13 -5z m-747 -19 c0 -7 -30 -13
-34 -7 -3 4 4 9 15 9 10 1 19 0 19 -2z"/>
<path d="M4683 6569 c-2 -23 3 -25 10 -4 4 8 3 16 -1 19 -4 3 -9 -4 -9 -15z"/>
<path d="M5096 6142 c-3 -5 1 -9 9 -9 8 0 12 4 9 9 -3 4 -7 8 -9 8 -2 0 -6 -4
-9 -8z"/>
<path d="M5330 5523 c0 -5 5 -15 10 -23 7 -12 9 -10 7 8 -1 19 -17 33 -17 15z"/>
<path d="M5395 5380 c3 -5 8 -10 11 -10 2 0 4 5 4 10 0 6 -5 10 -11 10 -5 0
-7 -4 -4 -10z"/>
<path d="M5442 5244 c-7 -8 -8 -14 -3 -14 10 0 25 19 20 25 -2 1 -10 -3 -17
-11z"/>
<path d="M6196 6468 c3 -5 10 -6 15 -3 13 9 11 12 -6 12 -8 0 -12 -4 -9 -9z"/>
<path d="M5437 8409 c7 -7 15 -10 18 -7 3 3 -2 9 -12 12 -14 6 -15 5 -6 -5z"/>
<path d="M3576 7487 c3 -10 9 -15 12 -12 3 3 0 11 -7 18 -10 9 -11 8 -5 -6z"/>
<path d="M6266 7488 c3 -5 10 -6 15 -3 13 9 11 12 -6 12 -8 0 -12 -4 -9 -9z"/>
<path d="M6415 7489 c-4 -6 -5 -12 -2 -15 2 -3 7 2 10 11 7 17 1 20 -8 4z"/>
<path d="M6513 7486 c-3 -6 -3 -8 2 -4 4 4 13 3 20 -2 8 -7 12 -5 12 3 0 16
-25 18 -34 3z"/>
<path d="M7740 7491 c0 -6 4 -13 10 -16 6 -3 7 1 4 9 -7 18 -14 21 -14 7z"/>
<path d="M6926 7482 c-2 -4 4 -8 14 -8 10 0 16 4 14 8 -3 4 -9 8 -14 8 -5 0
-11 -4 -14 -8z"/>
<path d="M5890 7473 c5 -2 8 -8 5 -13 -2 -4 4 -15 14 -24 14 -13 18 -14 18 -2
0 8 -5 14 -11 13 -5 -1 -10 4 -11 12 0 8 -6 15 -13 17 -7 1 -8 0 -2 -3z"/>
<path d="M1742 7397 c-5 -7 -8 -23 -6 -36 3 -14 -3 -33 -13 -45 -14 -15 -14
-18 -2 -8 14 11 16 5 18 -49 1 -39 -2 -58 -9 -54 -5 3 -10 1 -10 -4 0 -6 5
-11 10 -11 16 0 12 -22 -7 -36 -17 -13 -17 -14 0 -8 12 4 17 1 17 -11 0 -12
-5 -15 -17 -11 -10 4 -14 4 -10 0 4 -4 1 -14 -5 -23 -10 -13 -10 -14 2 -3 8 6
17 12 20 12 4 0 6 -45 6 -99 0 -55 -3 -98 -6 -96 -4 2 -7 -2 -7 -10 0 -8 4
-12 9 -9 4 3 8 -2 8 -11 0 -9 -5 -13 -11 -9 -6 3 -4 -8 5 -24 10 -20 12 -33 6
-37 -6 -3 -8 -18 -6 -32 4 -20 2 -24 -12 -19 -15 5 -14 4 1 -8 18 -14 18 -14
0 -19 -16 -4 -16 -5 0 -6 21 -1 22 -29 1 -52 -12 -13 -12 -19 -3 -25 7 -4 10
-3 5 4 -3 6 -2 13 3 16 5 3 11 -1 15 -9 3 -8 1 -17 -5 -20 -5 -4 -7 -10 -4
-15 3 -5 -3 -11 -12 -13 -16 -4 -16 -5 -1 -6 15 -1 16 -30 16 -348 -1 -192 1
-355 3 -363 2 -9 -2 -14 -10 -12 -11 2 -12 0 -3 -11 7 -8 9 -17 5 -20 -3 -4
-1 -7 6 -7 7 0 10 -4 7 -8 -6 -10 30 -9 40 1 4 3 15 2 25 -4 13 -7 19 -6 19 1
0 8 6 8 20 0 15 -8 20 -8 20 1 0 7 9 4 22 -7 12 -10 18 -13 14 -6 -5 8 1 12
21 13 15 1 33 0 38 -1 6 -1 24 -2 40 -1 55 1 80 0 108 -3 15 -2 30 1 33 6 3 5
11 5 17 0 7 -4 21 -7 32 -6 45 4 102 5 128 1 15 -2 27 0 27 6 0 7 3 8 10 1 5
-5 26 -8 45 -6 32 4 34 6 32 36 -2 17 0 41 5 54 4 13 4 22 -2 22 -6 0 -9 3 -9
8 1 4 1 20 0 36 -1 21 -5 27 -17 22 -8 -3 -12 -2 -9 4 9 14 38 12 54 -2 11
-10 13 -10 7 0 -5 8 2 12 26 12 19 0 40 -6 47 -12 11 -10 13 -10 7 0 -5 8 2
12 26 12 19 0 40 -6 47 -12 10 -9 12 -10 7 -1 -5 9 11 13 56 15 l63 3 0 512 0
512 -28 29 c-15 15 -25 31 -22 34 3 3 -14 18 -37 34 -41 29 -140 123 -188 179
-14 17 -38 40 -53 52 -27 21 -34 21 -347 21 -231 0 -321 -3 -328 -11z m683
-1427 c3 -6 -1 -7 -9 -4 -18 7 -21 14 -7 14 6 0 13 -4 16 -10z"/>
<path d="M1714 7266 c1 -8 5 -18 8 -22 4 -3 5 1 4 10 -1 8 -5 18 -8 22 -4 3
-5 -1 -4 -10z"/>
<path d="M5971 7256 c-8 -9 -7 -13 4 -13 8 0 11 5 8 10 -4 6 2 8 15 5 12 -4
24 -3 26 1 8 13 -42 11 -53 -3z"/>
<path d="M6049 7237 c6 -8 7 -18 3 -22 -4 -5 -1 -5 6 -1 10 6 10 11 1 22 -6 8
-14 14 -16 14 -3 0 0 -6 6 -13z"/>
<path d="M6175 7240 c3 -5 8 -10 11 -10 2 0 4 5 4 10 0 6 -5 10 -11 10 -5 0
-7 -4 -4 -10z"/>
<path d="M5950 7225 c0 -7 30 -13 34 -7 3 4 -4 9 -15 9 -10 1 -19 0 -19 -2z"/>
<path d="M6095 7220 c3 -5 8 -10 11 -10 2 0 4 5 4 10 0 6 -5 10 -11 10 -5 0
-7 -4 -4 -10z"/>
<path d="M6130 7220 c0 -5 5 -10 11 -10 5 0 7 5 4 10 -3 6 -8 10 -11 10 -2 0
-4 -4 -4 -10z"/>
<path d="M6240 7216 c0 -2 7 -7 16 -10 8 -3 12 -2 9 4 -6 10 -25 14 -25 6z"/>
<path d="M7567 7209 c7 -7 15 -10 18 -7 3 3 -2 9 -12 12 -14 6 -15 5 -6 -5z"/>
<path d="M3446 7182 c-3 -5 1 -9 9 -9 8 0 12 4 9 9 -3 4 -7 8 -9 8 -2 0 -6 -4
-9 -8z"/>
<path d="M7896 7061 c-4 -5 3 -7 14 -4 23 6 26 13 6 13 -8 0 -17 -4 -20 -9z"/>
<path d="M7990 7058 c0 -4 4 -8 9 -8 6 0 12 4 15 8 3 5 -1 9 -9 9 -8 0 -15 -4
-15 -9z"/>
<path d="M8215 7060 c3 -5 8 -10 11 -10 2 0 4 5 4 10 0 6 -5 10 -11 10 -5 0
-7 -4 -4 -10z"/>
<path d="M1713 7043 c4 -3 1 -13 -6 -22 -11 -14 -10 -14 5 -2 16 12 16 31 1
31 -4 0 -3 -3 0 -7z"/>
<path d="M1714 6956 c1 -8 5 -18 8 -22 4 -3 5 1 4 10 -1 8 -5 18 -8 22 -4 3
-5 -1 -4 -10z"/>
<path d="M8786 6902 c-3 -5 1 -9 9 -9 8 0 12 4 9 9 -3 4 -7 8 -9 8 -2 0 -6 -4
-9 -8z"/>
<path d="M1695 6891 c-3 -5 -2 -12 3 -15 5 -3 9 1 9 9 0 17 -3 19 -12 6z"/>
<path d="M6186 6827 c2 -7 19 -13 36 -14 28 -1 29 1 12 10 -29 17 -54 19 -48
4z"/>
<path d="M3305 6820 c-3 -6 1 -7 9 -4 18 7 21 14 7 14 -6 0 -13 -4 -16 -10z"/>
<path d="M6285 6683 c3 -4 -4 -12 -15 -18 -20 -11 -20 -12 -4 -26 16 -12 17
-12 11 4 -3 9 -2 17 3 17 6 0 10 -8 11 -17 0 -11 3 -13 6 -5 2 6 10 10 16 6 7
-3 5 0 -4 8 -9 7 -16 17 -17 21 0 5 -3 11 -6 13 -3 2 -4 1 -1 -3z"/>
<path d="M6314 6678 c-4 -7 -4 -10 1 -6 4 4 15 2 24 -5 14 -11 14 -10 2 6 -16
20 -18 21 -27 5z"/>
<path d="M3176 6527 c3 -10 9 -15 12 -12 3 3 0 11 -7 18 -10 9 -11 8 -5 -6z"/>
<path d="M3153 6455 c0 -8 4 -12 9 -9 5 3 6 10 3 15 -9 13 -12 11 -12 -6z"/>
<path d="M6470 6330 c0 -5 5 -10 11 -10 5 0 7 5 4 10 -3 6 -8 10 -11 10 -2 0
-4 -4 -4 -10z"/>
<path d="M9020 6299 c0 -9 -7 -22 -15 -29 -12 -10 -13 -15 -4 -21 8 -5 5 -10
-10 -18 -11 -7 -21 -19 -21 -27 0 -9 -5 -12 -12 -8 -7 5 -8 3 -4 -5 5 -7 0
-19 -10 -27 -11 -9 -13 -13 -6 -9 16 8 15 -1 -4 -30 -21 -32 -84 -57 -177 -69
-10 -1 -24 -10 -32 -19 -9 -9 -12 -15 -9 -12 4 2 13 -3 21 -11 9 -8 22 -13 29
-10 8 3 14 1 14 -4 0 -6 7 -10 15 -10 8 0 15 -4 15 -10 0 -5 7 -7 15 -4 8 4
15 2 15 -4 0 -6 9 -8 19 -5 25 6 49 -16 43 -39 -3 -13 1 -18 14 -18 19 -1 19
-1 0 -11 -17 -11 -17 -13 10 -35 18 -14 23 -23 15 -24 -11 0 -10 -4 5 -16 10
-8 12 -13 4 -9 -10 4 -9 2 3 -8 17 -14 24 -33 9 -23 -5 3 -9 -1 -9 -9 0 -8 3
-12 7 -10 4 2 18 -7 30 -20 13 -14 20 -25 16 -25 -4 0 -1 -7 8 -15 17 -17 30
-20 21 -5 -3 6 -2 10 3 10 9 0 39 69 35 82 -2 4 2 8 7 8 6 0 10 11 10 25 0 14
4 25 9 25 5 0 14 14 21 30 7 17 16 30 21 30 5 0 9 7 9 15 0 13 27 30 65 40 6
1 26 8 45 16 19 7 39 12 44 11 4 -2 14 5 21 14 10 14 9 20 -4 34 -9 9 -24 16
-34 14 -11 -2 -15 1 -11 8 5 7 -2 9 -20 6 -14 -3 -26 -2 -26 2 0 4 -10 10 -23
14 -14 3 -29 20 -41 46 -9 22 -22 40 -27 40 -6 0 -7 5 -3 11 5 8 -3 10 -24 7
-17 -2 -30 -2 -30 1 1 3 -4 19 -10 34 -7 16 -12 31 -12 35 0 4 -9 18 -20 32
-15 19 -20 21 -20 9z"/>
<path d="M7210 6296 c0 -2 8 -10 18 -17 15 -13 16 -12 3 4 -13 16 -21 21 -21
13z"/>
<path d="M8890 6126 c0 -2 7 -7 16 -10 8 -3 12 -2 9 4 -6 10 -25 14 -25 6z"/>
<path d="M6695 6020 c-3 -5 -1 -10 4 -10 6 0 11 5 11 10 0 6 -2 10 -4 10 -3 0
-8 -4 -11 -10z"/>
<path d="M6397 5983 c-4 -6 0 -13 8 -17 8 -3 17 0 21 6 4 6 3 8 -4 4 -5 -3
-12 -1 -14 6 -3 8 -6 9 -11 1z"/>
<path d="M7176 5907 c3 -10 9 -15 12 -12 3 3 0 11 -7 18 -10 9 -11 8 -5 -6z"/>
<path d="M6700 5876 c0 -2 8 -10 18 -17 15 -13 16 -12 3 4 -13 16 -21 21 -21
13z"/>
<path d="M8909 5843 c-13 -16 -12 -17 4 -4 9 7 17 15 17 17 0 8 -8 3 -21 -13z"/>
<path d="M7175 5840 c3 -5 8 -10 11 -10 2 0 4 5 4 10 0 6 -5 10 -11 10 -5 0
-7 -4 -4 -10z"/>
<path d="M1930 5826 c0 -2 7 -7 16 -10 8 -3 12 -2 9 4 -6 10 -25 14 -25 6z"/>
<path d="M6797 5629 c7 -7 15 -10 18 -7 3 3 -2 9 -12 12 -14 6 -15 5 -6 -5z"/>
<path d="M7136 5507 c3 -10 9 -15 12 -12 3 3 0 11 -7 18 -10 9 -11 8 -5 -6z"/>
<path d="M7029 5123 c-13 -16 -12 -17 4 -4 16 13 21 21 13 21 -2 0 -10 -8 -17
-17z"/>
<path d="M7040 5085 c-7 -9 -8 -15 -2 -15 5 0 12 7 16 15 3 8 4 15 2 15 -2 0
-9 -7 -16 -15z"/>
<path d="M2570 5060 c0 -5 5 -10 11 -10 5 0 7 5 4 10 -3 6 -8 10 -11 10 -2 0
-4 -4 -4 -10z"/>
<path d="M6990 4966 c0 -2 7 -7 16 -10 8 -3 12 -2 9 4 -6 10 -25 14 -25 6z"/>
<path d="M7059 4903 c-13 -16 -12 -17 4 -4 16 13 21 21 13 21 -2 0 -10 -8 -17
-17z"/>
<path d="M7576 4453 c-6 -14 -5 -15 5 -6 7 7 10 15 7 18 -3 3 -9 -2 -12 -12z"/>
<path d="M7255 4449 c-4 -6 -5 -12 -2 -15 2 -3 7 2 10 11 7 17 1 20 -8 4z"/>
<path d="M7265 4380 c3 -5 11 -10 16 -10 6 0 7 5 4 10 -3 6 -11 10 -16 10 -6
0 -7 -4 -4 -10z"/>
<path d="M8839 4195 c-1 -11 -1 -26 0 -34 2 -7 -2 -10 -9 -6 -9 6 -9 2 -1 -14
7 -13 8 -21 2 -21 -6 0 -8 -7 -5 -15 4 -8 11 -12 16 -9 6 4 5 -4 -2 -16 -8
-15 -8 -20 -1 -16 6 4 11 0 11 -8 0 -9 5 -16 11 -16 5 0 7 -4 4 -10 -7 -11 -5
-12 45 -16 59 -4 93 53 70 121 -13 41 -35 55 -82 55 -19 0 -39 5 -46 12 -9 9
-12 8 -13 -7z"/>
<path d="M1276 4074 c-5 -12 -2 -15 10 -10 13 5 15 -1 11 -32 -2 -20 0 -49 4
-64 4 -16 3 -30 -2 -34 -5 -3 -7 -10 -4 -15 4 -5 3 -9 -2 -10 -42 -6 -97 -11
-138 -14 -27 -2 -52 -5 -55 -6 -3 -1 -12 -1 -22 0 -9 1 -19 -3 -23 -9 -3 -5
-2 -10 3 -10 6 0 12 -7 16 -15 4 -12 2 -13 -13 -6 -10 6 -21 7 -25 4 -3 -3 -6
0 -6 7 0 22 -14 1 -18 -26 -2 -16 1 -23 8 -19 6 3 7 11 4 17 -5 7 -2 8 5 4 9
-6 8 -13 -5 -27 -15 -17 -15 -22 -1 -64 13 -40 13 -47 1 -52 -11 -4 -7 -12 13
-30 17 -15 21 -23 11 -20 -10 4 -20 1 -24 -5 -4 -6 -3 -8 2 -5 24 14 36 -13
41 -94 10 -147 9 -154 -7 -151 -8 2 -11 0 -7 -5 5 -4 13 -8 19 -8 6 0 12 -8
14 -18 2 -12 -2 -17 -11 -13 -8 3 -17 1 -20 -5 -4 -5 -3 -9 2 -8 26 4 33 -4
33 -37 0 -23 -7 -42 -17 -51 -10 -8 -12 -11 -4 -7 18 9 29 -11 25 -52 -1 -21
2 -34 9 -34 7 0 6 -4 -3 -10 -13 -9 -13 -10 0 -10 13 0 13 -1 0 -10 -10 -6
-11 -10 -2 -10 6 0 12 -5 12 -11 0 -5 -6 -7 -12 -3 -10 6 -10 4 0 -8 10 -13
10 -17 0 -21 -10 -4 -10 -6 0 -6 6 -1 12 -14 12 -29 0 -15 -6 -34 -12 -41 -9
-10 -9 -12 -1 -7 6 3 14 2 18 -4 3 -5 1 -10 -4 -10 -6 0 -11 -5 -11 -11 0 -5
5 -7 12 -3 7 5 9 0 6 -14 -3 -12 -1 -23 6 -26 8 -3 8 -5 -1 -5 -8 -1 -9 -10
-3 -30 4 -16 5 -33 2 -37 -4 -4 2 -2 13 4 15 8 22 6 33 -6 7 -10 11 -11 7 -4
-5 10 23 12 139 11 141 -1 172 3 161 21 -3 5 -2 11 3 13 4 3 9 36 10 73 3 49
8 72 20 81 15 12 15 12 -2 6 -15 -5 -17 -3 -11 8 5 7 10 30 10 49 3 74 5 90
14 90 12 0 0 -270 -14 -307 -2 -7 2 -13 10 -13 18 0 41 48 40 83 -1 15 1 27 4
27 4 0 7 17 8 38 1 50 11 155 21 222 4 30 7 65 6 78 -1 12 2 22 5 22 4 0 7 17
8 38 2 61 9 111 16 118 10 10 9 26 -1 20 -13 -8 -8 30 6 46 9 11 9 18 -1 28
-7 8 -8 11 -1 7 8 -4 12 2 12 16 0 12 3 34 6 50 4 18 2 27 -6 28 -7 0 -4 4 7
9 11 5 14 9 6 9 -11 1 -11 4 0 18 12 14 10 14 -13 -1 -16 -10 -28 -17 -29 -15
0 2 -3 13 -5 24 -11 45 -7 158 5 150 5 -3 12 -2 15 3 3 5 -13 7 -35 6 -21 -1
-39 2 -39 7 0 6 -8 5 -19 -1 -23 -12 -34 -13 -28 -2 3 4 -6 8 -19 8 -14 1 -21
-2 -17 -9 3 -5 1 -7 -5 -3 -6 3 -13 2 -17 -4 -3 -5 -11 -10 -18 -10 -6 0 -2 7
9 15 18 14 18 14 -6 16 -14 0 -37 3 -52 5 -23 4 -28 1 -28 -16 0 -26 -12 -26
-28 1 -8 12 -9 19 -5 16 5 -4 9 32 9 81 -1 81 -3 87 -22 90 -13 2 -24 -4 -28
-14z m-216 -239 c7 -9 8 -15 2 -15 -5 0 -12 7 -16 15 -3 8 -4 15 -2 15 2 0 9
-7 16 -15z m472 -574 c2 -22 0 -37 -4 -35 -8 5 -11 74 -4 74 2 0 6 -18 8 -39z
m8 -57 c0 -2 -7 -4 -15 -4 -8 0 -15 4 -15 10 0 5 7 7 15 4 8 -4 15 -8 15 -10z"/>
<path d="M995 3740 c3 -5 8 -10 11 -10 2 0 4 5 4 10 0 6 -5 10 -11 10 -5 0 -7
-4 -4 -10z"/>
<path d="M1027 3599 c7 -7 15 -10 18 -7 3 3 -2 9 -12 12 -14 6 -15 5 -6 -5z"/>
<path d="M4353 3565 c0 -8 4 -12 9 -9 5 3 6 10 3 15 -9 13 -12 11 -12 -6z"/>
<path d="M4040 3551 c-12 -24 -13 -54 -1 -47 8 5 22 66 15 66 -2 0 -8 -9 -14
-19z"/>
<path d="M3476 3527 c-16 -12 -16 -14 -3 -14 9 0 18 6 21 14 3 7 4 13 3 13 -2
0 -11 -6 -21 -13z"/>
<path d="M4030 3490 c-13 -9 -13 -10 0 -10 9 0 11 -3 5 -8 -5 -4 -11 -20 -13
-37 -1 -16 -4 -39 -6 -50 -2 -11 -4 -26 -5 -34 0 -8 -4 -12 -7 -8 -3 3 -14 -3
-25 -14 -10 -10 -28 -19 -38 -19 -11 0 -23 -5 -26 -10 -4 -6 -9 -8 -13 -6 -4
2 -12 -2 -19 -9 -14 -15 3 -25 43 -25 21 0 24 -4 19 -22 -5 -22 -5 -21 10 2
l16 25 -4 -27 c-2 -15 -1 -27 2 -26 23 2 32 -4 27 -18 -3 -8 -2 -12 4 -9 6 3
10 -3 10 -14 0 -12 3 -21 8 -21 4 0 8 -21 10 -48 4 -68 18 -72 21 -6 2 55 22
111 45 126 6 5 7 8 1 8 -5 0 3 7 19 15 15 8 32 12 37 9 5 -3 9 0 9 5 0 6 11
11 24 11 13 0 30 8 37 18 7 9 10 14 5 10 -4 -3 -22 0 -41 7 -18 8 -35 11 -39
8 -3 -4 -6 -1 -6 5 0 7 -7 12 -15 12 -20 0 -55 58 -55 92 0 15 -4 29 -9 32 -5
3 -7 15 -4 26 6 22 -4 25 -27 10z"/>
<path d="M3301 3156 c-19 -26 -22 -36 -7 -30 9 3 14 11 13 17 -1 6 3 11 10 12
17 0 25 12 8 12 -8 0 -19 -5 -24 -11z"/>
<path d="M3270 3106 c0 -2 7 -7 16 -10 8 -3 12 -2 9 4 -6 10 -25 14 -25 6z"/>
<path d="M3257 3043 c-2 -5 -3 -15 -2 -23 0 -8 -4 -19 -10 -23 -6 -5 -4 -7 5
-4 8 2 15 12 15 23 -1 10 4 22 10 26 6 5 6 8 -2 8 -6 0 -14 -3 -16 -7z"/>
<path d="M6206 2958 c3 -5 10 -6 15 -3 13 9 11 12 -6 12 -8 0 -12 -4 -9 -9z"/>
<path d="M1090 2880 c0 -5 5 -10 11 -10 5 0 7 5 4 10 -3 6 -8 10 -11 10 -2 0
-4 -4 -4 -10z"/>
<path d="M5670 2877 c0 -4 -4 -5 -10 -2 -5 3 -10 -3 -10 -14 0 -12 6 -21 13
-21 8 0 7 -3 -3 -9 -8 -6 -17 -8 -21 -5 -4 2 -10 0 -13 -4 -3 -5 10 -8 29 -7
19 1 35 -3 35 -7 0 -5 5 -6 10 -3 6 3 10 2 10 -3 0 -6 15 -12 34 -14 19 -2 32
0 29 5 -3 5 5 6 18 1 13 -4 31 -8 39 -9 9 0 20 -4 25 -7 6 -3 25 4 43 17 l32
22 -31 32 c-26 27 -33 30 -46 20 -12 -11 -17 -10 -27 3 -11 15 -13 15 -24 -3
-11 -17 -9 -19 18 -19 23 0 30 -5 30 -19 0 -11 -5 -21 -12 -23 -19 -7 -58 3
-52 13 3 5 0 9 -5 9 -6 0 -10 3 -9 8 4 13 -26 52 -40 52 -7 0 -10 -4 -7 -10 3
-5 1 -10 -4 -10 -6 0 -11 4 -11 9 0 6 -9 9 -20 8 -11 -1 -20 -5 -20 -10z m205
-17 c3 -5 1 -10 -4 -10 -6 0 -11 5 -11 10 0 6 2 10 4 10 3 0 8 -4 11 -10z
m-127 -46 c-12 -12 -17 -13 -23 -3 -5 8 -4 10 4 5 6 -4 14 0 17 9 4 9 9 13 12
10 3 -3 -1 -13 -10 -21z"/>
<path d="M5830 2880 c0 -5 5 -10 10 -10 6 0 10 5 10 10 0 6 -4 10 -10 10 -5 0
-10 -4 -10 -10z"/>
<path d="M6296 2793 c-6 -14 -5 -15 5 -6 7 7 10 15 7 18 -3 3 -9 -2 -12 -12z"/>
<path d="M3166 2791 c-3 -4 1 -17 10 -27 14 -18 15 -18 5 2 -6 12 -7 24 -4 28
3 3 4 6 0 6 -3 0 -8 -4 -11 -9z"/>
<path d="M6300 2766 c0 -2 8 -10 18 -17 15 -13 16 -12 3 4 -13 16 -21 21 -21
13z"/>
<path d="M3145 2750 c-3 -5 1 -10 10 -10 9 0 13 5 10 10 -3 6 -8 10 -10 10 -2
0 -7 -4 -10 -10z"/>
<path d="M3106 2654 c-5 -13 -4 -14 7 -6 8 7 18 8 22 4 5 -4 5 -1 1 6 -10 17
-23 15 -30 -4z"/>
<path d="M5295 2580 c3 -5 8 -10 11 -10 2 0 4 5 4 10 0 6 -5 10 -11 10 -5 0
-7 -4 -4 -10z"/>
<path d="M6391 2507 c-8 -10 -7 -14 2 -14 8 0 14 6 14 14 0 7 -1 13 -2 13 -2
0 -8 -6 -14 -13z"/>
<path d="M9176 2441 c-3 -5 -25 -12 -49 -15 -24 -4 -61 -16 -81 -27 -21 -11
-45 -19 -54 -18 -10 1 -19 0 -22 -1 -21 -8 -50 -8 -50 -1 0 9 -28 6 -60 -7
-19 -7 -69 -9 -65 -2 2 3 -34 5 -80 5 -58 0 -81 -3 -78 -12 6 -16 -35 -27 -52
-13 -16 13 -55 -3 -55 -23 1 -33 14 -57 32 -57 10 0 17 -4 14 -9 -7 -10 20 -9
30 1 3 4 17 3 30 -2 24 -9 170 -7 212 3 16 4 22 1 22 -10 0 -12 3 -13 14 -3
10 8 32 9 68 5 29 -4 62 -7 74 -6 12 0 26 -9 33 -22 6 -12 9 -14 7 -5 -4 15 0
16 27 11 18 -3 34 -9 37 -13 3 -3 16 -6 30 -5 l25 0 0 108 c0 85 3 110 15 117
13 8 13 10 -2 10 -9 0 -19 -4 -22 -9z m-356 -121 c0 -5 -8 -10 -17 -10 -15 0
-16 2 -3 10 19 12 20 12 20 0z m90 -10 c0 -11 -4 -20 -9 -20 -5 0 -7 9 -4 20
3 11 7 20 9 20 2 0 4 -9 4 -20z"/>
<path d="M6166 2405 c-9 -26 -7 -32 5 -12 6 10 9 21 6 23 -2 3 -7 -2 -11 -11z"/>
<path d="M8459 2373 c-8 -9 -9 -14 -2 -10 6 4 13 2 15 -5 3 -7 12 -9 22 -5 16
6 16 9 2 22 -18 19 -21 19 -37 -2z"/>
<path d="M8391 2361 c-7 -5 -21 -6 -31 -4 -20 5 -36 -27 -31 -61 1 -10 -2 -15
-7 -12 -6 4 -13 2 -16 -2 -3 -5 25 -9 62 -8 62 0 67 -2 67 -21 0 -12 4 -25 8
-29 4 -5 5 -1 1 9 -4 13 -1 17 14 17 11 0 31 6 46 13 l26 14 -23 11 c-12 6
-31 11 -42 9 -12 -1 -21 4 -21 13 -1 8 -2 23 -3 33 -1 11 -6 15 -12 11 -6 -3
-14 -2 -18 4 -4 6 -12 7 -20 3z"/>
<path d="M6335 2301 c-3 -5 -2 -12 3 -15 5 -3 9 1 9 9 0 17 -3 19 -12 6z"/>
<path d="M6399 2293 c-13 -16 -12 -17 4 -4 16 13 21 21 13 21 -2 0 -10 -8 -17
-17z"/>
<path d="M985 2200 c-3 -5 -2 -10 2 -10 15 0 13 -50 -2 -81 -9 -16 -33 -42
-55 -58 -22 -16 -37 -30 -35 -33 2 -2 -4 -4 -13 -5 -39 -2 -96 -23 -64 -23 7
0 12 -7 12 -16 0 -9 5 -12 12 -8 8 5 9 2 5 -9 -4 -11 -1 -17 7 -17 8 0 17 6
19 13 4 9 6 8 6 -2 1 -11 4 -11 16 -1 11 9 15 10 15 1 0 -7 7 -19 15 -28 8 -8
13 -19 10 -24 -4 -5 -1 -9 6 -9 8 0 8 -4 -1 -15 -11 -13 -10 -14 4 -9 18 7 21
-6 6 -24 -7 -9 -7 -9 2 -2 14 12 29 13 26 3 -1 -5 3 -18 10 -29 6 -12 8 -25 4
-29 -4 -5 -1 -5 6 -1 7 5 11 11 8 14 -4 3 0 15 7 26 7 12 14 37 16 56 3 33 27
73 40 66 3 -2 20 3 36 10 l30 12 -26 10 c-40 16 -97 87 -93 118 1 14 5 28 8
31 3 3 -1 14 -8 25 -8 11 -12 28 -9 39 6 20 -11 27 -22 9z"/>
</g>
</svg>
